<svg width="111.1" height="73.22" viewBox="0 0 111.1 73.22" xmlns="http://www.w3.org/2000/svg"><g id="svgGroup" stroke-linecap="round" fill-rule="evenodd" font-size="9pt" stroke="#000000" stroke-width="0.25mm" fill="#4f4949" style="stroke:#000000;stroke-width:0.25mm;fill:#4f4949"><path d="M 9 61.22 L 9 21.52 A 18.789 18.789 0 0 0 8.732 18.31 A 17.241 17.241 0 0 0 8.65 17.87 Q 8.3 16.12 7 14.97 Q 5.835 13.94 3.146 13.833 A 16.213 16.213 0 0 0 2.5 13.82 Q 1.715 13.82 1.115 13.697 A 4.281 4.281 0 0 1 0.8 13.62 Q 0.109 13.423 0.003 11.764 A 8.296 8.296 0 0 1 0 11.72 Q 0 10.92 0.4 10.22 A 1.314 1.314 0 0 1 1.343 9.551 A 1.956 1.956 0 0 1 1.7 9.52 Q 5 9.62 7.8 9.72 A 160.565 160.565 0 0 0 12.853 9.819 A 177.771 177.771 0 0 0 13.6 9.82 L 45 9.82 A 4.013 4.013 0 0 1 45.851 9.906 A 2.883 2.883 0 0 1 46.85 10.32 A 1.495 1.495 0 0 1 47.401 11.016 Q 47.512 11.285 47.561 11.629 A 4.188 4.188 0 0 1 47.6 12.22 L 47.9 26.22 A 1.643 1.643 0 0 1 47.731 26.975 Q 47.557 27.317 47.205 27.565 A 2.313 2.313 0 0 1 46.95 27.72 A 5.114 5.114 0 0 1 46.259 28.025 Q 45.875 28.159 45.518 28.201 A 2.72 2.72 0 0 1 45.2 28.22 A 4.658 4.658 0 0 1 43.903 28.044 A 4.126 4.126 0 0 1 43.2 27.77 A 2.274 2.274 0 0 1 42.604 27.35 A 1.853 1.853 0 0 1 42.1 26.42 Q 41.63 23.397 41.047 21.163 A 27.08 27.08 0 0 0 40.45 19.17 Q 39.5 16.42 37.65 15.17 A 6.606 6.606 0 0 0 35.992 14.382 Q 34.46 13.882 32.3 13.82 L 18.9 13.82 L 18.9 39.22 L 37 39.22 A 1.584 1.584 0 0 1 37.556 39.39 Q 37.917 39.583 38.128 39.977 A 1.791 1.791 0 0 1 38.15 40.02 Q 38.5 40.72 38.5 41.52 A 2.806 2.806 0 0 1 38.161 42.85 A 3.27 3.27 0 0 1 38.15 42.87 Q 37.8 43.52 37 43.52 L 18.9 43.52 L 18.9 62.42 Q 19 63.72 19.3 65.27 A 4.079 4.079 0 0 0 20.433 67.38 A 5.585 5.585 0 0 0 21.05 67.92 A 4.034 4.034 0 0 0 22.187 68.504 Q 23.574 68.98 25.829 68.922 A 20.045 20.045 0 0 0 25.9 68.92 L 35.1 68.92 A 19.801 19.801 0 0 0 37.08 68.771 Q 39.164 68.5 40.45 67.77 Q 42.185 66.785 43.261 64.525 A 11.342 11.342 0 0 0 43.4 64.22 A 34.471 34.471 0 0 0 44.107 62.472 Q 44.853 60.486 45.682 57.718 A 118.104 118.104 0 0 0 45.8 57.32 A 2.424 2.424 0 0 1 46.206 56.634 A 2.016 2.016 0 0 1 47.15 56.02 Q 48.041 55.739 49.063 55.897 A 5.27 5.27 0 0 1 49.2 55.92 Q 50 56.02 50.85 56.62 A 1.965 1.965 0 0 1 51.306 57.057 Q 51.611 57.472 51.611 58.014 A 2.071 2.071 0 0 1 51.6 58.22 L 49.6 70.82 A 5.684 5.684 0 0 1 49.434 71.437 Q 49.143 72.305 48.65 72.57 Q 48.061 72.887 46.94 72.917 A 8.99 8.99 0 0 1 46.7 72.92 L 13.7 72.92 Q 10.7 72.92 7.85 72.97 Q 5 73.02 1.7 73.22 A 1.806 1.806 0 0 1 1.175 73.148 A 1.303 1.303 0 0 1 0.4 72.52 A 3.252 3.252 0 0 1 0.394 72.509 A 2.973 2.973 0 0 1 0 71.02 A 6.447 6.447 0 0 1 0.065 70.397 Q 0.235 69.32 0.761 69.133 A 0.654 0.654 0 0 1 0.8 69.12 Q 1.374 68.956 2.148 68.927 A 9.213 9.213 0 0 1 2.5 68.92 Q 5.7 68.92 7 67.77 Q 8.3 66.62 8.65 64.87 Q 9 63.12 9 61.22 Z M 64.9 62.62 L 64.9 13.82 Q 64.9 12.02 64.75 10.47 A 4.423 4.423 0 0 0 64.456 9.229 A 3.561 3.561 0 0 0 63.6 7.97 A 2.631 2.631 0 0 0 62.775 7.459 Q 61.958 7.125 60.659 7.045 A 14.072 14.072 0 0 0 59.8 7.02 A 5.641 5.641 0 0 1 58.79 6.933 A 4.654 4.654 0 0 1 58.15 6.77 A 0.895 0.895 0 0 1 57.637 6.312 Q 57.4 5.864 57.4 5.02 A 2.072 2.072 0 0 1 57.523 4.28 Q 57.749 3.687 58.387 3.404 A 2.768 2.768 0 0 1 59 3.22 Q 62.791 2.643 65.122 2.066 A 27.017 27.017 0 0 0 66.05 1.82 Q 68.5 1.12 69.8 0.62 A 12.268 12.268 0 0 1 70.733 0.301 Q 71.197 0.165 71.615 0.089 A 6.178 6.178 0 0 1 72.1 0.02 Q 72.59 -0.041 72.986 0.085 A 1.621 1.621 0 0 1 73.45 0.32 Q 73.955 0.688 73.996 1.731 A 4.825 4.825 0 0 1 74 1.92 L 74 62.62 A 35.447 35.447 0 0 0 74.141 65.82 A 32.65 32.65 0 0 0 74.15 65.92 A 4.425 4.425 0 0 0 74.437 67.154 A 3.503 3.503 0 0 0 75.35 68.47 Q 76.242 69.277 78.396 69.399 A 14.293 14.293 0 0 0 79.2 69.42 A 9.086 9.086 0 0 1 79.89 69.445 Q 80.216 69.47 80.5 69.52 A 4.8 4.8 0 0 1 80.75 69.57 A 0.677 0.677 0 0 1 81.16 69.872 Q 81.438 70.283 81.5 71.22 A 2.486 2.486 0 0 1 81.205 72.386 A 3.037 3.037 0 0 1 81.1 72.57 A 1.351 1.351 0 0 1 80.655 73.026 Q 80.397 73.184 80.06 73.213 A 1.827 1.827 0 0 1 79.9 73.22 Q 77 73.02 74.55 72.97 Q 72.1 72.92 69.4 72.92 Q 66.7 72.92 64.3 72.97 Q 61.9 73.02 59 73.22 A 1.295 1.295 0 0 1 57.997 72.757 A 1.94 1.94 0 0 1 57.85 72.57 A 2.634 2.634 0 0 1 57.52 71.929 A 2.163 2.163 0 0 1 57.4 71.22 A 5.399 5.399 0 0 1 57.462 70.676 Q 57.63 69.69 58.15 69.57 A 5.38 5.38 0 0 1 58.755 69.469 Q 59.065 69.434 59.418 69.424 A 10.096 10.096 0 0 1 59.7 69.42 Q 61.919 69.42 63.039 68.824 A 2.531 2.531 0 0 0 63.55 68.47 Q 64.6 67.52 64.75 65.92 A 35.26 35.26 0 0 0 64.9 62.726 A 38.449 38.449 0 0 0 64.9 62.62 Z M 94.5 62.62 L 94.5 39.72 Q 94.5 37.92 94.35 36.37 A 4.423 4.423 0 0 0 94.056 35.129 A 3.561 3.561 0 0 0 93.2 33.87 A 2.631 2.631 0 0 0 92.375 33.359 Q 91.558 33.025 90.259 32.945 A 14.072 14.072 0 0 0 89.4 32.92 A 5.641 5.641 0 0 1 88.39 32.833 A 4.654 4.654 0 0 1 87.75 32.67 A 0.895 0.895 0 0 1 87.237 32.212 Q 87 31.764 87 30.92 A 2.072 2.072 0 0 1 87.123 30.18 Q 87.349 29.587 87.987 29.304 A 2.768 2.768 0 0 1 88.6 29.12 Q 92.391 28.543 94.722 27.966 A 27.017 27.017 0 0 0 95.65 27.72 Q 98.1 27.02 99.4 26.52 A 12.268 12.268 0 0 1 100.333 26.201 Q 100.797 26.065 101.215 25.989 A 6.178 6.178 0 0 1 101.7 25.92 Q 102.19 25.859 102.586 25.985 A 1.621 1.621 0 0 1 103.05 26.22 Q 103.555 26.588 103.596 27.631 A 4.825 4.825 0 0 1 103.6 27.82 L 103.6 62.62 A 35.447 35.447 0 0 0 103.741 65.82 A 32.65 32.65 0 0 0 103.75 65.92 A 4.425 4.425 0 0 0 104.037 67.154 A 3.503 3.503 0 0 0 104.95 68.47 Q 105.842 69.277 107.996 69.399 A 14.293 14.293 0 0 0 108.8 69.42 A 9.086 9.086 0 0 1 109.49 69.445 Q 109.816 69.47 110.1 69.52 A 4.8 4.8 0 0 1 110.35 69.57 A 0.677 0.677 0 0 1 110.76 69.872 Q 111.038 70.283 111.1 71.22 A 2.486 2.486 0 0 1 110.805 72.386 A 3.037 3.037 0 0 1 110.7 72.57 A 1.351 1.351 0 0 1 110.255 73.026 Q 109.997 73.184 109.66 73.213 A 1.827 1.827 0 0 1 109.5 73.22 Q 106.6 73.02 104.15 72.97 Q 101.7 72.92 99 72.92 Q 96.3 72.92 93.9 72.97 Q 91.5 73.02 88.6 73.22 A 1.295 1.295 0 0 1 87.597 72.757 A 1.94 1.94 0 0 1 87.45 72.57 A 2.634 2.634 0 0 1 87.12 71.929 A 2.163 2.163 0 0 1 87 71.22 A 6.216 6.216 0 0 1 87.089 70.705 Q 87.282 69.831 87.671 69.62 A 0.55 0.55 0 0 1 87.8 69.57 A 4.087 4.087 0 0 1 88.214 69.491 Q 88.68 69.425 89.312 69.42 A 12.988 12.988 0 0 1 89.4 69.42 A 12.915 12.915 0 0 0 90.669 69.363 Q 92.446 69.186 93.2 68.47 A 3.625 3.625 0 0 0 94.21 66.724 A 4.982 4.982 0 0 0 94.35 65.92 A 35.26 35.26 0 0 0 94.5 62.726 A 38.449 38.449 0 0 0 94.5 62.62 Z M 96.073 14.436 A 7.398 7.398 0 0 0 98.5 14.82 A 8.701 8.701 0 0 0 99.186 14.794 A 6.63 6.63 0 0 0 103.2 13.12 A 7.023 7.023 0 0 0 103.43 12.905 A 5.252 5.252 0 0 0 105.1 9.02 A 8.209 8.209 0 0 0 105.031 7.943 A 6.042 6.042 0 0 0 103.5 4.57 A 5.221 5.221 0 0 0 101.481 3.179 A 5.827 5.827 0 0 0 99.4 2.82 Q 96.5 2.82 94.2 4.62 A 9.243 9.243 0 0 0 94.09 4.707 Q 93.373 5.286 92.891 5.917 A 4.519 4.519 0 0 0 91.9 8.72 A 6.957 6.957 0 0 0 91.904 8.962 A 5.65 5.65 0 0 0 93.8 13.07 A 6.412 6.412 0 0 0 96.073 14.436 Z" vector-effect="non-scaling-stroke"/></g></svg>