<?xml version="1.0" encoding="UTF-8" standalone="no"?>
<svg
   xmlns:sketch="http://www.bohemiancoding.com/sketch/ns"
   xmlns:dc="http://purl.org/dc/elements/1.1/"
   xmlns:cc="http://creativecommons.org/ns#"
   xmlns:rdf="http://www.w3.org/1999/02/22-rdf-syntax-ns#"
   xmlns:svg="http://www.w3.org/2000/svg"
   xmlns="http://www.w3.org/2000/svg"
   xmlns:sodipodi="http://sodipodi.sourceforge.net/DTD/sodipodi-0.dtd"
   xmlns:inkscape="http://www.inkscape.org/namespaces/inkscape"
   viewBox="0 0 3000 1227.7708"
   version="1.1"
   id="svg2"
   inkscape:version="0.91 r13725"
   sodipodi:docname="play.svg"
   width="3000"
   height="1227.7708">
  <title
     id="title4150">ELLE Magazine Logo</title>
  <metadata
     id="metadata22">
    <rdf:RDF>
      <cc:Work
         rdf:about="">
        <dc:format>image/svg+xml</dc:format>
        <dc:type
           rdf:resource="http://purl.org/dc/dcmitype/StillImage" />
        <dc:title>ELLE Magazine Logo</dc:title>
        <dc:subject>
          <rdf:Bag />
        </dc:subject>
      </cc:Work>
    </rdf:RDF>
  </metadata>
  <sodipodi:namedview
     pagecolor="#ffffff"
     bordercolor="#666666"
     borderopacity="1"
     objecttolerance="10"
     gridtolerance="10"
     guidetolerance="10"
     inkscape:pageopacity="0"
     inkscape:pageshadow="2"
     inkscape:window-width="1366"
     inkscape:window-height="715"
     id="namedview20"
     showgrid="false"
     inkscape:showpageshadow="false"
     fit-margin-top="20"
     fit-margin-right="20"
     fit-margin-bottom="20"
     fit-margin-left="20"
     inkscape:zoom="0.27297297"
     inkscape:cx="1500"
     inkscape:cy="613.8854"
     inkscape:window-x="-8"
     inkscape:window-y="-8"
     inkscape:window-maximized="1"
     inkscape:current-layer="svg2" />
  <desc
     id="desc6">Created with Sketch.</desc>
  <defs
     id="defs8" />
  <g
     id="Page-1"
     sketch:type="MSPage"
     style="fill:#000000;fill-rule:evenodd;stroke:none;stroke-width:1"
     transform="matrix(13.466788,0,0,13.466788,20,20)">
    <g
       id="logo"
       sketch:type="MSLayerGroup"
       style="fill:#000000">
      <g
         id="Group"
         sketch:type="MSShapeGroup"
         style="fill:#000000">
        <path
           d="m 6.7,86.8 -6.7,0 0,1.3 37.1,0 0,-23.4 -1.1,0 c 0,0 0,13.5 -4.5,17.9 -3.8,3.8 -7.8,4.1 -14.3,4.1 l 0,-43.1 c 0,0 4.5,-0.3 6.7,1.9 3.4,3.4 3.8,7.8 3.8,13.9 l 1.2,0 0,-33 -1.2,0 c 0,6.1 -0.3,10.5 -3.8,13.9 -2.2,2.2 -6.7,1.9 -6.7,1.9 l 0,-40.9 c 6.5,0 9.6,0.4 13.4,4.1 4.4,4.4 4.5,17.9 4.5,17.9 l 1.1,0 L 36.2,0 0,0 l 0,1.3 6.7,0 0,85.5 0,0 z"
           id="Shape"
           style="fill:#000000"
           inkscape:connector-curvature="0" />
        <path
           d="m 79.2,1.3 0,85.5 c 6.5,0 10.5,-0.4 14.3,-4.1 C 97.9,78.3 98,64.8 98,64.8 l 1.1,0 0,23.4 -37.1,0 0,-1.3 6.7,0 0,-85.7 -6.7,0 0,-1.2 23.3,0 0,1.3 -6.1,0 0,0 z"
           id="path14"
           style="fill:#000000"
           inkscape:connector-curvature="0" />
        <path
           d="m 138.8,1.3 0,85.5 c 6.5,0 10.5,-0.4 14.3,-4.1 4.4,-4.4 4.5,-17.9 4.5,-17.9 l 1.1,0 0,23.4 -37.1,0 0,-1.3 6.7,0 0,-85.7 -6.7,0 0,-1.2 23.3,0 0,1.3 -6.1,0 0,0 z"
           id="path16"
           style="fill:#000000"
           inkscape:connector-curvature="0" />
        <path
           d="m 189.4,86.8 -6.7,0 0,1.3 37.1,0 0,-23.4 -1.1,0 c 0,0 0,13.5 -4.5,17.9 -3.8,3.8 -7.8,4.1 -14.3,4.1 l 0,-43.1 c 0,0 4.5,-0.3 6.7,1.9 3.4,3.4 3.8,7.8 3.8,13.9 l 1.2,0 0,-33 -1.2,0 c 0,6.1 -0.3,10.5 -3.8,13.9 -2.2,2.2 -6.7,1.9 -6.7,1.9 l 0,-40.9 c 6.5,0 9.6,0.4 13.4,4.1 4.4,4.4 4.5,17.9 4.5,17.9 l 1.1,0 0,-23.3 -36.2,0 0,1.3 6.7,0 0,85.5 0,0 0,0 z"
           id="path18"
           style="fill:#000000"
           inkscape:connector-curvature="0" />
      </g>
    </g>
  </g>
</svg>
