<svg width="20" height="20" viewBox="0 0 20 20" fill="none" xmlns="http://www.w3.org/2000/svg">
<path fill-rule="evenodd" clip-rule="evenodd" d="M9.48825 1.00879C9.78917 0.774738 10.2105 0.774738 10.5114 1.00879L18.0114 6.84213C18.2144 7 18.3332 7.24276 18.3332 7.49992V16.6666C18.3332 17.3297 18.0698 17.9655 17.6009 18.4343C17.1321 18.9032 16.4963 19.1666 15.8332 19.1666H4.1665C3.50346 19.1666 2.86758 18.9032 2.39874 18.4343C1.9299 17.9655 1.6665 17.3297 1.6665 16.6666V7.49992C1.6665 7.24276 1.78523 7 1.98822 6.84213L9.48825 1.00879ZM3.33317 7.90749V16.6666C3.33317 16.8876 3.42097 17.0996 3.57725 17.2558C3.73353 17.4121 3.94549 17.4999 4.1665 17.4999H15.8332C16.0542 17.4999 16.2662 17.4121 16.4224 17.2558C16.5787 17.0996 16.6665 16.8876 16.6665 16.6666V7.90749L9.99984 2.7223L3.33317 7.90749Z" fill="#253D4E"/>
<path fill-rule="evenodd" clip-rule="evenodd" d="M6.6665 10.0001C6.6665 9.53983 7.0396 9.16675 7.49984 9.16675H12.4998C12.9601 9.16675 13.3332 9.53983 13.3332 10.0001V18.3334C13.3332 18.7937 12.9601 19.1667 12.4998 19.1667C12.0396 19.1667 11.6665 18.7937 11.6665 18.3334V10.8334H8.33317V18.3334C8.33317 18.7937 7.96007 19.1667 7.49984 19.1667C7.0396 19.1667 6.6665 18.7937 6.6665 18.3334V10.0001Z" fill="#253D4E"/>
</svg>
