<svg width="20" height="20" viewBox="0 0 20 20" fill="none" xmlns="http://www.w3.org/2000/svg">
<path d="M13.0157 3.72435C12.0633 2.91721 11.0823 2.0799 10.0895 1.09023L9.52359 0.52832L8.96803 1.09102C7.18073 2.88309 6.33628 5.63467 5.96961 7.28547C5.68896 6.85047 5.4807 6.37284 5.35295 5.87118L5.01723 4.57514L4.04104 5.49261C2.33073 7.09816 1.19025 8.69102 1.19025 11.2418C1.17428 13.0817 1.77352 14.8742 2.8928 16.3346C4.01208 17.7948 5.58721 18.8394 7.36803 19.3022C7.9046 19.4326 8.45224 19.5124 9.00375 19.5403C9.17618 19.5621 9.34978 19.5734 9.52359 19.5744C9.61482 19.5744 9.70378 19.5665 9.79263 19.5608C11.9546 19.4958 14.0063 18.5908 15.5119 17.0379C17.0175 15.4849 17.8587 13.4064 17.8569 11.2434C17.8569 7.83547 15.6133 5.9307 13.0157 3.72435ZM9.68235 17.9736C9.60292 17.9736 9.52359 17.9815 9.43945 17.9807C8.72511 17.9588 8.04722 17.6602 7.54902 17.1478C7.05083 16.6354 6.77134 15.9493 6.76961 15.2346C6.76961 14.2284 7.3093 13.7267 8.53073 12.687C8.83866 12.4251 9.17359 12.1403 9.52597 11.8141C9.83473 12.0942 10.1347 12.3482 10.4117 12.5839C11.6386 13.6251 12.2791 14.2165 12.2791 15.2323C12.2778 15.9343 12.0082 16.6092 11.5254 17.1188C11.0425 17.6285 10.3832 17.9343 9.68235 17.9736ZM13.6664 16.568L13.6505 16.5791C13.793 16.1451 13.8659 15.6914 13.8664 15.2346C13.8664 13.437 12.6871 12.4355 11.4395 11.376C10.9974 11.0013 10.541 10.6141 10.0855 10.1585L9.52359 9.59741L8.96247 10.1585C8.44819 10.672 7.94501 11.1006 7.50136 11.4784C6.25692 12.537 5.18152 13.4522 5.18152 15.2346C5.18321 15.711 5.26366 16.1838 5.41961 16.6339C4.59347 15.9995 3.92515 15.1827 3.46683 14.2474C3.00852 13.3121 2.77261 12.2834 2.77756 11.2418C2.7645 9.84912 3.30354 8.50794 4.27676 7.51166C4.4444 7.85175 4.64313 8.17562 4.87041 8.47911C5.03641 8.70311 5.26433 8.87365 5.52607 8.96969C5.78781 9.06572 6.07194 9.08307 6.34342 9.01959C6.61961 8.95811 6.87223 8.81837 7.0711 8.61711C7.26998 8.41585 7.40667 8.16156 7.46485 7.88467C7.79717 6.06058 8.5159 4.32869 9.57282 2.8053C10.4101 3.59895 11.2395 4.30133 11.9879 4.93705C14.4736 7.04816 16.2736 8.57356 16.2736 11.2466C16.2755 12.2741 16.0414 13.2883 15.5892 14.2109C15.137 15.1336 14.4789 15.94 13.6657 16.568H13.6664Z" fill="#253D4E"/>
</svg>
