<svg width="24" height="24" viewBox="0 0 24 24" fill="none" xmlns="http://www.w3.org/2000/svg">
<path fill-rule="evenodd" clip-rule="evenodd" d="M20 12C20 12.5523 19.5523 13 19 13L5 13C4.44771 13 4 12.5523 4 12C4 11.4477 4.44771 11 5 11L19 11C19.5523 11 20 11.4477 20 12Z" fill="#253D4E"/>
<path fill-rule="evenodd" clip-rule="evenodd" d="M12.7071 19.7071C12.3166 20.0976 11.6834 20.0976 11.2929 19.7071L4.29289 12.7071C3.90237 12.3166 3.90237 11.6834 4.29289 11.2929L11.2929 4.29289C11.6834 3.90237 12.3166 3.90237 12.7071 4.29289C13.0976 4.68342 13.0976 5.31658 12.7071 5.70711L6.41421 12L12.7071 18.2929C13.0976 18.6834 13.0976 19.3166 12.7071 19.7071Z" fill="#253D4E"/>
</svg>
