<svg width="24" height="24" viewBox="0 0 24 24" fill="none" xmlns="http://www.w3.org/2000/svg">
<g id="li:heart">
<path id="Vector (Stroke)" fill-rule="evenodd" clip-rule="evenodd" d="M4.95051 2.481C5.72844 2.15798 6.56249 1.9917 7.40482 1.9917C8.24715 1.9917 9.08119 2.15798 9.85912 2.481C10.6371 2.80402 11.3436 3.27743 11.9382 3.87408L11.9415 3.87742L11.9998 3.93653L12.0582 3.87743L12.0615 3.87408C12.6561 3.27743 13.3626 2.80402 14.1405 2.481C14.9184 2.15798 15.7525 1.9917 16.5948 1.9917C17.4371 1.9917 18.2712 2.15798 19.0491 2.481C19.8268 2.80391 20.5331 3.2771 21.1275 3.87346C23.6726 6.41916 23.7291 10.6283 20.7135 13.7005L20.707 13.7071L12.7069 21.7071C12.5194 21.8946 12.265 22 11.9998 22C11.7346 22 11.4802 21.8946 11.2927 21.7071L3.28615 13.7005C0.270454 10.6283 0.327075 6.41915 2.8721 3.87346C3.46656 3.2771 4.17285 2.80391 4.95051 2.481ZM7.40482 3.9917C6.82572 3.9917 6.25231 4.10602 5.71748 4.32809C5.18266 4.55017 4.69693 4.87564 4.28815 5.28584L4.28693 5.28706C2.59331 6.98068 2.38957 9.92921 4.71033 12.2963L11.9998 19.5857L19.2893 12.2963C21.6101 9.92922 21.4063 6.98068 19.7127 5.28706L19.7115 5.28584C19.3027 4.87564 18.817 4.55017 18.2822 4.32809C17.7473 4.10602 17.1739 3.9917 16.5948 3.9917C16.0157 3.9917 15.4423 4.10602 14.9075 4.32809C14.3734 4.54988 13.8882 4.87478 13.4798 5.28422C13.4792 5.28476 13.4787 5.2853 13.4782 5.28584L12.7115 6.06249C12.5236 6.25282 12.2673 6.35996 11.9998 6.35996C11.7324 6.35996 11.4761 6.25282 11.2882 6.06249L10.5215 5.28584C10.5209 5.2853 10.5204 5.28476 10.5199 5.28422C10.1114 4.87478 9.62628 4.54988 9.09215 4.32809C8.55733 4.10602 7.98392 3.9917 7.40482 3.9917Z" fill="#253D4E"/>
</g>
</svg>
