<svg width="21" height="20" viewBox="0 0 21 20" fill="none" xmlns="http://www.w3.org/2000/svg">
<path fill-rule="evenodd" clip-rule="evenodd" d="M18.052 4.33665C18.2593 4.49423 18.381 4.73967 18.381 5.00009V15.0001C18.381 15.2529 18.2663 15.492 18.0691 15.6501C17.872 15.8083 17.6137 15.8684 17.3669 15.8136L2.36691 12.4802C1.98563 12.3955 1.71436 12.0573 1.71436 11.6668V9.16676C1.71436 8.79242 1.96397 8.46401 2.32465 8.36382L17.3247 4.19716C17.5756 4.12746 17.8446 4.17906 18.052 4.33665ZM3.38102 9.80016V10.9983L16.7144 13.9612V6.09646L3.38102 9.80016Z" fill="#253D4E"/>
<path fill-rule="evenodd" clip-rule="evenodd" d="M5.10273 11.8632C5.54639 11.9856 5.80684 12.4445 5.68445 12.8882C5.626 13.1 5.60986 13.3213 5.63694 13.5394C5.66402 13.7575 5.7338 13.9682 5.84228 14.1593C5.95077 14.3505 6.09584 14.5184 6.26921 14.6534C6.44258 14.7885 6.64086 14.8881 6.85273 14.9466C7.0646 15.005 7.2859 15.0211 7.50401 14.9941C7.72211 14.967 7.93275 14.8972 8.12389 14.7887C8.31503 14.6802 8.48293 14.5352 8.618 14.3618C8.75308 14.1884 8.85268 13.9901 8.91113 13.7783C9.03352 13.3346 9.4924 13.0742 9.93606 13.1966C10.3797 13.3189 10.6402 13.7778 10.5178 14.2215C10.4011 14.6443 10.2023 15.0401 9.93275 15.3861C9.66316 15.7321 9.32805 16.0217 8.94656 16.2382C8.56508 16.4547 8.14468 16.594 7.70937 16.648C7.27406 16.7021 6.83237 16.6699 6.40951 16.5532C5.98666 16.4366 5.59092 16.2378 5.24489 15.9682C4.89886 15.6986 4.60932 15.3635 4.3928 14.982C4.17628 14.6005 4.03702 14.1801 3.98297 13.7448C3.92892 13.3095 3.96114 12.8678 4.07779 12.4449C4.20018 12.0013 4.65906 11.7408 5.10273 11.8632Z" fill="#253D4E"/>
</svg>
