<svg width="107" height="16" viewBox="0 0 107 16" fill="none" xmlns="http://www.w3.org/2000/svg">
<path d="M11.9456 9.54675C11.7729 9.71408 11.6936 9.95608 11.7329 10.1934L12.3256 13.4734C12.3756 13.7514 12.2583 14.0327 12.0256 14.1934C11.7976 14.3601 11.4943 14.3801 11.2456 14.2467L8.29292 12.7067C8.19026 12.6521 8.07626 12.6227 7.95959 12.6194H7.77892C7.71626 12.6287 7.65493 12.6487 7.59893 12.6794L4.64559 14.2267C4.49959 14.3001 4.33426 14.3261 4.17226 14.3001C3.77759 14.2254 3.51426 13.8494 3.57893 13.4527L4.17226 10.1727C4.21159 9.93341 4.13226 9.69008 3.95959 9.52008L1.55226 7.18675C1.35093 6.99141 1.28093 6.69808 1.37293 6.43341C1.46226 6.16941 1.69026 5.97675 1.96559 5.93341L5.27892 5.45275C5.53093 5.42675 5.75226 5.27341 5.86559 5.04675L7.32559 2.05341C7.36026 1.98675 7.40493 1.92541 7.45893 1.87341L7.51892 1.82675C7.55026 1.79208 7.58626 1.76341 7.62626 1.74008L7.69893 1.71341L7.81226 1.66675H8.09293C8.34359 1.69275 8.56426 1.84275 8.67959 2.06675L10.1589 5.04675C10.2656 5.26475 10.4729 5.41608 10.7123 5.45275L14.0256 5.93341C14.3056 5.97341 14.5396 6.16675 14.6323 6.43341C14.7196 6.70075 14.6443 6.99408 14.4389 7.18675L11.9456 9.54675Z" fill="#FDC040"/>
<path d="M29.9456 9.54675C29.7729 9.71408 29.6936 9.95608 29.7329 10.1934L30.3256 13.4734C30.3756 13.7514 30.2583 14.0327 30.0256 14.1934C29.7976 14.3601 29.4943 14.3801 29.2456 14.2467L26.2929 12.7067C26.1903 12.6521 26.0763 12.6227 25.9596 12.6194H25.7789C25.7163 12.6287 25.6549 12.6487 25.5989 12.6794L22.6456 14.2267C22.4996 14.3001 22.3343 14.3261 22.1723 14.3001C21.7776 14.2254 21.5143 13.8494 21.5789 13.4527L22.1723 10.1727C22.2116 9.93341 22.1323 9.69008 21.9596 9.52008L19.5523 7.18675C19.3509 6.99141 19.2809 6.69808 19.3729 6.43341C19.4623 6.16941 19.6903 5.97675 19.9656 5.93341L23.2789 5.45275C23.5309 5.42675 23.7523 5.27341 23.8656 5.04675L25.3256 2.05341C25.3603 1.98675 25.4049 1.92541 25.4589 1.87341L25.5189 1.82675C25.5503 1.79208 25.5863 1.76341 25.6263 1.74008L25.6989 1.71341L25.8123 1.66675H26.0929C26.3436 1.69275 26.5643 1.84275 26.6796 2.06675L28.1589 5.04675C28.2656 5.26475 28.4729 5.41608 28.7123 5.45275L32.0256 5.93341C32.3056 5.97341 32.5396 6.16675 32.6323 6.43341C32.7196 6.70075 32.6443 6.99408 32.4389 7.18675L29.9456 9.54675Z" fill="#FDC040"/>
<path d="M47.9456 9.54675C47.7729 9.71408 47.6936 9.95608 47.7329 10.1934L48.3256 13.4734C48.3756 13.7514 48.2583 14.0327 48.0256 14.1934C47.7976 14.3601 47.4943 14.3801 47.2456 14.2467L44.2929 12.7067C44.1903 12.6521 44.0763 12.6227 43.9596 12.6194H43.7789C43.7163 12.6287 43.6549 12.6487 43.5989 12.6794L40.6456 14.2267C40.4996 14.3001 40.3343 14.3261 40.1723 14.3001C39.7776 14.2254 39.5143 13.8494 39.5789 13.4527L40.1723 10.1727C40.2116 9.93341 40.1323 9.69008 39.9596 9.52008L37.5523 7.18675C37.3509 6.99141 37.2809 6.69808 37.3729 6.43341C37.4623 6.16941 37.6903 5.97675 37.9656 5.93341L41.2789 5.45275C41.5309 5.42675 41.7523 5.27341 41.8656 5.04675L43.3256 2.05341C43.3603 1.98675 43.4049 1.92541 43.4589 1.87341L43.5189 1.82675C43.5503 1.79208 43.5863 1.76341 43.6263 1.74008L43.6989 1.71341L43.8123 1.66675H44.0929C44.3436 1.69275 44.5643 1.84275 44.6796 2.06675L46.1589 5.04675C46.2656 5.26475 46.4729 5.41608 46.7123 5.45275L50.0256 5.93341C50.3056 5.97341 50.5396 6.16675 50.6323 6.43341C50.7196 6.70075 50.6443 6.99408 50.4389 7.18675L47.9456 9.54675Z" fill="#FDC040"/>
<path d="M65.9456 9.54675C65.7729 9.71408 65.6936 9.95608 65.7329 10.1934L66.3256 13.4734C66.3756 13.7514 66.2583 14.0327 66.0256 14.1934C65.7976 14.3601 65.4943 14.3801 65.2456 14.2467L62.2929 12.7067C62.1903 12.6521 62.0763 12.6227 61.9596 12.6194H61.7789C61.7163 12.6287 61.6549 12.6487 61.5989 12.6794L58.6456 14.2267C58.4996 14.3001 58.3343 14.3261 58.1723 14.3001C57.7776 14.2254 57.5143 13.8494 57.5789 13.4527L58.1723 10.1727C58.2116 9.93341 58.1323 9.69008 57.9596 9.52008L55.5523 7.18675C55.3509 6.99141 55.2809 6.69808 55.3729 6.43341C55.4623 6.16941 55.6903 5.97675 55.9656 5.93341L59.2789 5.45275C59.5309 5.42675 59.7523 5.27341 59.8656 5.04675L61.3256 2.05341C61.3603 1.98675 61.4049 1.92541 61.4589 1.87341L61.5189 1.82675C61.5503 1.79208 61.5863 1.76341 61.6263 1.74008L61.6989 1.71341L61.8123 1.66675H62.0929C62.3436 1.69275 62.5643 1.84275 62.6796 2.06675L64.1589 5.04675C64.2656 5.26475 64.4729 5.41608 64.7123 5.45275L68.0256 5.93341C68.3056 5.97341 68.5396 6.16675 68.6323 6.43341C68.7196 6.70075 68.6443 6.99408 68.4389 7.18675L65.9456 9.54675Z" fill="#FDC040"/>
<path d="M83.9456 9.54675C83.7729 9.71408 83.6936 9.95608 83.7329 10.1934L84.3256 13.4734C84.3756 13.7514 84.2583 14.0327 84.0256 14.1934C83.7976 14.3601 83.4943 14.3801 83.2456 14.2467L80.2929 12.7067C80.1903 12.6521 80.0763 12.6227 79.9596 12.6194H79.7789C79.7163 12.6287 79.6549 12.6487 79.5989 12.6794L76.6456 14.2267C76.4996 14.3001 76.3343 14.3261 76.1723 14.3001C75.7776 14.2254 75.5143 13.8494 75.5789 13.4527L76.1723 10.1727C76.2116 9.93341 76.1323 9.69008 75.9596 9.52008L73.5523 7.18675C73.3509 6.99141 73.2809 6.69808 73.3729 6.43341C73.4623 6.16941 73.6903 5.97675 73.9656 5.93341L77.2789 5.45275C77.5309 5.42675 77.7523 5.27341 77.8656 5.04675L79.3256 2.05341C79.3603 1.98675 79.4049 1.92541 79.4589 1.87341L79.5189 1.82675C79.5503 1.79208 79.5863 1.76341 79.6263 1.74008L79.6989 1.71341L79.8123 1.66675H80.0929C80.3436 1.69275 80.5643 1.84275 80.6796 2.06675L82.1589 5.04675C82.2656 5.26475 82.4729 5.41608 82.7123 5.45275L86.0256 5.93341C86.3056 5.97341 86.5396 6.16675 86.6323 6.43341C86.7196 6.70075 86.6443 6.99408 86.4389 7.18675L83.9456 9.54675Z" fill="#D5D5D5"/>
<path d="M95.432 14.068C95.3587 14.068 95.289 14.0497 95.223 14.013C94.6217 13.6757 94.1193 13.254 93.716 12.748C93.3127 12.2493 93.0083 11.692 92.803 11.076C92.5977 10.46 92.495 9.822 92.495 9.162C92.495 8.502 92.6013 7.87133 92.814 7.27C93.0267 6.66867 93.3347 6.115 93.738 5.609C94.1487 5.103 94.6437 4.67033 95.223 4.311C95.289 4.27433 95.3587 4.256 95.432 4.256C95.5493 4.256 95.641 4.3 95.707 4.388C95.773 4.46867 95.806 4.553 95.806 4.641C95.806 4.76567 95.7473 4.872 95.63 4.96C95.146 5.268 94.7353 5.64567 94.398 6.093C94.068 6.54033 93.815 7.028 93.639 7.556C93.4703 8.07667 93.386 8.612 93.386 9.162C93.386 9.712 93.4667 10.2547 93.628 10.79C93.7967 11.3253 94.046 11.813 94.376 12.253C94.7133 12.7003 95.1313 13.0743 95.63 13.375C95.74 13.441 95.795 13.5437 95.795 13.683C95.795 13.7783 95.762 13.8663 95.696 13.947C95.63 14.0277 95.542 14.068 95.432 14.068ZM100.175 12C100.05 12 99.9438 11.956 99.8558 11.868C99.7751 11.78 99.7348 11.6737 99.7348 11.549V5.532L99.9108 5.598L97.2818 9.03L97.2378 8.898H101.352C101.469 8.898 101.568 8.93833 101.649 9.019C101.729 9.09967 101.77 9.19867 101.77 9.316C101.77 9.426 101.729 9.52133 101.649 9.602C101.568 9.67533 101.469 9.712 101.352 9.712H96.6328C96.5228 9.712 96.4201 9.668 96.3248 9.58C96.2368 9.492 96.1928 9.38933 96.1928 9.272C96.1928 9.162 96.2295 9.06667 96.3028 8.986L99.8118 4.476C99.8631 4.41 99.9218 4.366 99.9878 4.344C100.054 4.31467 100.12 4.3 100.186 4.3C100.31 4.3 100.413 4.344 100.494 4.432C100.574 4.51267 100.615 4.61533 100.615 4.74V11.549C100.615 11.6737 100.571 11.78 100.483 11.868C100.402 11.956 100.299 12 100.175 12ZM102.692 14.068C102.575 14.068 102.483 14.024 102.417 13.936C102.351 13.848 102.318 13.76 102.318 13.672C102.318 13.5473 102.373 13.4447 102.483 13.364C102.975 13.0487 103.385 12.6673 103.715 12.22C104.053 11.78 104.306 11.296 104.474 10.768C104.65 10.24 104.738 9.701 104.738 9.151C104.738 8.601 104.654 8.062 104.485 7.534C104.324 6.99867 104.075 6.50733 103.737 6.06C103.407 5.61267 102.989 5.24233 102.483 4.949C102.373 4.87567 102.318 4.76933 102.318 4.63C102.318 4.53467 102.351 4.44667 102.417 4.366C102.491 4.28533 102.582 4.245 102.692 4.245C102.766 4.245 102.835 4.267 102.901 4.311C103.503 4.641 104.001 5.059 104.397 5.565C104.801 6.071 105.105 6.632 105.31 7.248C105.516 7.85667 105.618 8.491 105.618 9.151C105.618 9.811 105.512 10.4453 105.299 11.054C105.094 11.6553 104.786 12.209 104.375 12.715C103.972 13.221 103.477 13.65 102.89 14.002C102.832 14.046 102.766 14.068 102.692 14.068Z" fill="#ADADAD"/>
</svg>
