<svg width="88" height="16" viewBox="0 0 88 16" fill="none" xmlns="http://www.w3.org/2000/svg">
<path d="M11.9456 9.54675C11.7729 9.71408 11.6936 9.95608 11.7329 10.1934L12.3256 13.4734C12.3756 13.7514 12.2583 14.0327 12.0256 14.1934C11.7976 14.3601 11.4943 14.3801 11.2456 14.2467L8.29292 12.7067C8.19026 12.6521 8.07626 12.6227 7.95959 12.6194H7.77892C7.71626 12.6287 7.65493 12.6487 7.59893 12.6794L4.64559 14.2267C4.49959 14.3001 4.33426 14.3261 4.17226 14.3001C3.77759 14.2254 3.51426 13.8494 3.57893 13.4527L4.17226 10.1727C4.21159 9.93341 4.13226 9.69008 3.95959 9.52008L1.55226 7.18675C1.35093 6.99141 1.28093 6.69808 1.37293 6.43341C1.46226 6.16941 1.69026 5.97675 1.96559 5.93341L5.27892 5.45275C5.53093 5.42675 5.75226 5.27341 5.86559 5.04675L7.32559 2.05341C7.36026 1.98675 7.40493 1.92541 7.45893 1.87341L7.51892 1.82675C7.55026 1.79208 7.58626 1.76341 7.62626 1.74008L7.69893 1.71341L7.81226 1.66675H8.09293C8.34359 1.69275 8.56426 1.84275 8.67959 2.06675L10.1589 5.04675C10.2656 5.26475 10.4729 5.41608 10.7123 5.45275L14.0256 5.93341C14.3056 5.97341 14.5396 6.16675 14.6323 6.43341C14.7196 6.70075 14.6443 6.99408 14.4389 7.18675L11.9456 9.54675Z" fill="#FDC040"/>
<path d="M29.9456 9.54675C29.7729 9.71408 29.6936 9.95608 29.7329 10.1934L30.3256 13.4734C30.3756 13.7514 30.2583 14.0327 30.0256 14.1934C29.7976 14.3601 29.4943 14.3801 29.2456 14.2467L26.2929 12.7067C26.1903 12.6521 26.0763 12.6227 25.9596 12.6194H25.7789C25.7163 12.6287 25.6549 12.6487 25.5989 12.6794L22.6456 14.2267C22.4996 14.3001 22.3343 14.3261 22.1723 14.3001C21.7776 14.2254 21.5143 13.8494 21.5789 13.4527L22.1723 10.1727C22.2116 9.93341 22.1323 9.69008 21.9596 9.52008L19.5523 7.18675C19.3509 6.99141 19.2809 6.69808 19.3729 6.43341C19.4623 6.16941 19.6903 5.97675 19.9656 5.93341L23.2789 5.45275C23.5309 5.42675 23.7523 5.27341 23.8656 5.04675L25.3256 2.05341C25.3603 1.98675 25.4049 1.92541 25.4589 1.87341L25.5189 1.82675C25.5503 1.79208 25.5863 1.76341 25.6263 1.74008L25.6989 1.71341L25.8123 1.66675H26.0929C26.3436 1.69275 26.5643 1.84275 26.6796 2.06675L28.1589 5.04675C28.2656 5.26475 28.4729 5.41608 28.7123 5.45275L32.0256 5.93341C32.3056 5.97341 32.5396 6.16675 32.6323 6.43341C32.7196 6.70075 32.6443 6.99408 32.4389 7.18675L29.9456 9.54675Z" fill="#FDC040"/>
<path d="M47.9456 9.54675C47.7729 9.71408 47.6936 9.95608 47.7329 10.1934L48.3256 13.4734C48.3756 13.7514 48.2583 14.0327 48.0256 14.1934C47.7976 14.3601 47.4943 14.3801 47.2456 14.2467L44.2929 12.7067C44.1903 12.6521 44.0763 12.6227 43.9596 12.6194H43.7789C43.7163 12.6287 43.6549 12.6487 43.5989 12.6794L40.6456 14.2267C40.4996 14.3001 40.3343 14.3261 40.1723 14.3001C39.7776 14.2254 39.5143 13.8494 39.5789 13.4527L40.1723 10.1727C40.2116 9.93341 40.1323 9.69008 39.9596 9.52008L37.5523 7.18675C37.3509 6.99141 37.2809 6.69808 37.3729 6.43341C37.4623 6.16941 37.6903 5.97675 37.9656 5.93341L41.2789 5.45275C41.5309 5.42675 41.7523 5.27341 41.8656 5.04675L43.3256 2.05341C43.3603 1.98675 43.4049 1.92541 43.4589 1.87341L43.5189 1.82675C43.5503 1.79208 43.5863 1.76341 43.6263 1.74008L43.6989 1.71341L43.8123 1.66675H44.0929C44.3436 1.69275 44.5643 1.84275 44.6796 2.06675L46.1589 5.04675C46.2656 5.26475 46.4729 5.41608 46.7123 5.45275L50.0256 5.93341C50.3056 5.97341 50.5396 6.16675 50.6323 6.43341C50.7196 6.70075 50.6443 6.99408 50.4389 7.18675L47.9456 9.54675Z" fill="#FDC040"/>
<path d="M65.9456 9.54675C65.7729 9.71408 65.6936 9.95608 65.7329 10.1934L66.3256 13.4734C66.3756 13.7514 66.2583 14.0327 66.0256 14.1934C65.7976 14.3601 65.4943 14.3801 65.2456 14.2467L62.2929 12.7067C62.1903 12.6521 62.0763 12.6227 61.9596 12.6194H61.7789C61.7163 12.6287 61.6549 12.6487 61.5989 12.6794L58.6456 14.2267C58.4996 14.3001 58.3343 14.3261 58.1723 14.3001C57.7776 14.2254 57.5143 13.8494 57.5789 13.4527L58.1723 10.1727C58.2116 9.93341 58.1323 9.69008 57.9596 9.52008L55.5523 7.18675C55.3509 6.99141 55.2809 6.69808 55.3729 6.43341C55.4623 6.16941 55.6903 5.97675 55.9656 5.93341L59.2789 5.45275C59.5309 5.42675 59.7523 5.27341 59.8656 5.04675L61.3256 2.05341C61.3603 1.98675 61.4049 1.92541 61.4589 1.87341L61.5189 1.82675C61.5503 1.79208 61.5863 1.76341 61.6263 1.74008L61.6989 1.71341L61.8123 1.66675H62.0929C62.3436 1.69275 62.5643 1.84275 62.6796 2.06675L64.1589 5.04675C64.2656 5.26475 64.4729 5.41608 64.7123 5.45275L68.0256 5.93341C68.3056 5.97341 68.5396 6.16675 68.6323 6.43341C68.7196 6.70075 68.6443 6.99408 68.4389 7.18675L65.9456 9.54675Z" fill="#FDC040"/>
<path d="M83.9456 9.54675C83.7729 9.71408 83.6936 9.95608 83.7329 10.1934L84.3256 13.4734C84.3756 13.7514 84.2583 14.0327 84.0256 14.1934C83.7976 14.3601 83.4943 14.3801 83.2456 14.2467L80.2929 12.7067C80.1903 12.6521 80.0763 12.6227 79.9596 12.6194H79.7789C79.7163 12.6287 79.6549 12.6487 79.5989 12.6794L76.6456 14.2267C76.4996 14.3001 76.3343 14.3261 76.1723 14.3001C75.7776 14.2254 75.5143 13.8494 75.5789 13.4527L76.1723 10.1727C76.2116 9.93341 76.1323 9.69008 75.9596 9.52008L73.5523 7.18675C73.3509 6.99141 73.2809 6.69808 73.3729 6.43341C73.4623 6.16941 73.6903 5.97675 73.9656 5.93341L77.2789 5.45275C77.5309 5.42675 77.7523 5.27341 77.8656 5.04675L79.3256 2.05341C79.3603 1.98675 79.4049 1.92541 79.4589 1.87341L79.5189 1.82675C79.5503 1.79208 79.5863 1.76341 79.6263 1.74008L79.6989 1.71341L79.8123 1.66675H80.0929C80.3436 1.69275 80.5643 1.84275 80.6796 2.06675L82.1589 5.04675C82.2656 5.26475 82.4729 5.41608 82.7123 5.45275L86.0256 5.93341C86.3056 5.97341 86.5396 6.16675 86.6323 6.43341C86.7196 6.70075 86.6443 6.99408 86.4389 7.18675L83.9456 9.54675Z" fill="#D5D5D5"/>
</svg>
