<svg width="72" height="52" viewBox="0 0 72 52" fill="none" xmlns="http://www.w3.org/2000/svg">
<path fill-rule="evenodd" clip-rule="evenodd" d="M11.2051 20.472C11.0609 23.9843 10.6626 31.402 10.2222 32.8174C7.90255 32.4635 6.68376 33.6037 7.47008 34.9405C7.90255 35.5302 8.64957 35.5302 8.64957 35.5302C10.1829 35.6088 11.2838 34.0362 11.2838 34.0362L11.3551 34.0838C12.987 35.1719 14.7692 36.3604 17.0633 36.6704C19.9727 37.0635 21.0736 35.7661 21.1129 34.6652C21.1579 33.4055 19.6582 32.3849 18.7932 33.6037C19.8547 34.8618 17.9282 36.5131 15.9231 35.6482C14.4915 35.0306 13.7292 34.5231 12.5368 33.7291L12.5368 33.7291L12.5368 33.7291L12.5368 33.7291C12.3305 33.5917 12.1113 33.4457 11.8735 33.2892C12.3846 32.5028 13.171 28.2567 13.2103 20.6686C15.2023 21.0487 19.4615 20.8264 19.6582 16.8157C19.7333 15.2831 18.8325 12.9328 16.6701 13.0023C16.6183 13.004 16.5486 13.003 16.4638 13.0019C15.2589 12.9857 10.9899 12.9283 11.2838 19.6857C9.56696 19.3451 5.63794 19.3401 3.65639 22.2024C1.67484 25.0646 2.68412 26.9901 3.30254 27.746C4.01024 28.611 6.87401 29.1168 7.23417 26.0554C7.3128 25.387 6.68374 24.7186 6.44784 26.0554C6.28133 26.999 4.75724 27.3921 4.52134 24.7973C4.4427 23.6571 4.71792 21.6618 7.47007 20.6297C8.79873 20.1315 10.6154 20.3152 11.2051 20.472ZM15.1761 20.0007L13.3282 19.922C13.3282 16.7764 14.1145 14.2211 16.3556 14.2211C19.3436 14.5357 18.0462 20.0007 15.1761 20.0007ZM10.0256 33.3686C9.90769 33.9584 9.17915 35.4179 8.41366 34.3122C8.05982 33.8011 8.64957 33.2114 10.0256 33.3686ZM20.9949 24.8763L21.1129 22.6352C21.1129 22.478 21.1994 22.187 21.7026 22.4387C22.3317 22.7532 23.4325 22.8318 25.359 22.2421C27.3377 21.6364 27.4035 24.0506 27.2462 24.5618C28.4415 22.1084 30.4309 21.8882 31.2172 22.0455C31.9249 22.2028 32.9844 22.8772 32.8685 25.466C32.8207 26.5328 32.7601 27.6253 32.7048 28.6209C32.6236 30.0838 32.5539 31.3375 32.5539 31.9926C32.6719 33.8929 33.6469 37.6777 36.6035 37.6148C39.5601 37.5519 40.2993 33.6307 40.2993 31.678L40.6138 24.6797L39.0412 24.6404C38.5379 24.3259 38.8315 23.9851 39.0412 23.8541H40.6138C40.7711 19.372 41.2822 17.4717 42.8155 16.1087L42.8666 16.0629C43.2797 15.6918 44.132 14.926 46.3933 14.8506C48.6901 14.774 49.5255 16.3053 49.6173 17.0916C50.0104 20.2369 46.5768 20.0797 47.101 18.1925C47.6908 16.0694 46.7865 15.6369 46.1967 15.5583C43.097 15.5583 42.8707 20.241 42.721 23.3387L42.721 23.3392L42.721 23.3401C42.7131 23.503 42.7054 23.6615 42.6976 23.8147H44.7027L44.7814 24.6404L42.6583 24.6797C42.7369 32.3464 42.0406 34.645 41.2429 35.7276C40.142 37.2216 39.1984 38.2423 36.2497 38.3618C33.9137 38.4565 32.1215 36.8678 31.4924 36.0028C31.1832 35.5777 30.4938 34.0678 30.4309 31.8353C30.3862 30.2489 30.4939 29.3227 30.6097 28.3276L30.6097 28.3276C30.6976 27.5721 30.7901 26.777 30.824 25.6233C30.8869 23.4845 30.2343 23.0284 29.7232 23.0284C27.4428 23.2643 26.7351 27.3139 26.7744 31.7567C26.7744 32.0923 26.9336 32.1568 27.1529 32.2457C27.2418 32.2818 27.3407 32.3219 27.4428 32.3857C27.6944 32.543 27.6394 32.8575 27.4821 32.9362H24.0223C23.9174 32.8966 23.7078 32.7003 23.8257 32.425C23.8708 32.3198 23.9936 32.2673 24.1296 32.2093C24.3326 32.1226 24.5649 32.0234 24.612 31.7173C24.6515 31.461 24.9528 26.7242 25.0838 24.3652C25.1231 23.0677 24.3761 23.1191 23.9043 23.2643C23.7904 23.2994 23.7119 23.3323 23.6416 23.3619C23.4451 23.4444 23.3123 23.5002 22.6462 23.5002C22.6855 24.0506 22.253 29.6336 22.1351 30.2233C22.0407 30.6951 22.2793 30.7869 22.4103 30.7737C23.3539 30.6165 23.5374 31.2324 23.5112 31.5601C23.5374 31.927 23.2753 32.6922 22.0171 32.8174C20.759 32.9425 20.3921 31.8478 20.3659 31.2849C20.3344 31.4107 20.0906 31.5208 19.9727 31.5601C19.1549 32.8182 17.8758 33.0017 17.3385 32.9362C14.3898 32.3857 14.3111 29.437 14.3111 28.0216C14.3111 26.604 14.7436 25.2694 14.8616 24.9549C14.9795 24.6404 16.3163 22.0848 18.5573 22.1635C20.3501 22.2264 20.9294 23.9982 20.9949 24.8763ZM18.3607 31.2849C20.2479 31.2455 20.6018 27.1697 20.3659 25.4267C20.2845 24.8258 20.13 23.9327 19.5795 23.5788C18.7539 23.1464 16.9359 23.6964 16.3949 26.6848C16.1328 28.4279 16.4739 31.3242 18.3607 31.2849ZM50.9147 27.5891C49.3421 28.9731 47.6908 29.1356 47.0617 29.0438C46.9044 31.0096 49.6173 33.5259 52.0549 30.4985C52.0549 30.0661 52.3773 29.2719 53.5096 29.2404C54.6419 29.209 54.652 30.1441 54.4925 30.6951C54.333 31.2462 54.5631 31.9254 55.1609 32.2285C55.9707 32.639 57.3239 32.4189 58.0703 30.8131C58.2538 30.2757 58.0153 28.9809 55.5934 28.1002C53.1715 27.2195 53.0902 25.3219 53.3523 24.4831C53.5358 23.8016 54.4768 22.4229 56.7729 22.36C59.0689 22.2971 59.8395 23.0677 60.272 23.6182C60.9011 24.4831 60.7438 26.6062 59.1712 26.6062C57.5985 26.6062 58.0703 25.2301 58.5421 25.0336C58.778 24.3652 58.7583 23.6575 58.3455 23.3823C57.5199 22.8318 56.1183 22.9737 55.5934 24.6011C55.4099 25.1646 55.4911 26.4568 57.284 27.1173C59.525 27.943 60.0145 28.7249 60.1934 29.4763C60.39 30.302 60.272 33.2114 55.9079 33.1327C53.4562 33.0886 52.833 32.2657 52.5312 31.8673C52.4846 31.8057 52.4456 31.7542 52.4087 31.7173C50.207 33.7303 48.0053 33.2114 47.0617 32.8182L47.0135 32.7876C46.1603 32.2455 45.2025 31.637 45.0173 29.0438C44.8285 26.4018 45.7249 24.6797 46.1574 24.09C46.5899 23.5002 47.565 22.4465 49.4207 22.3207C51.2764 22.1949 52.1728 23.5919 52.3694 24.2865C52.5398 24.8108 52.4874 26.2052 50.9147 27.5891ZM48.3198 23.1857C47.8874 23.356 46.9487 23.9142 47.0617 25.0729C47.0954 25.4187 47.1129 25.7512 47.1292 26.062L47.1292 26.0622C47.1889 27.2001 47.2333 28.0458 48.0053 28.1789C48.8703 28.328 50.5373 26.7006 50.4429 24.8763C50.3486 23.052 48.9882 22.9891 48.3198 23.1857ZM61.1373 16.3439V15.7934H65.1869V16.4618H64.5579C64.4268 16.4749 64.204 16.6022 64.204 17.0123C64.204 17.4054 63.9944 22.5166 63.8502 25.0328C64.4793 24.0761 66.1541 22.3278 67.9784 22.6738C69.774 23.0144 69.7594 24.8035 69.7491 26.0638C69.7484 26.1557 69.7477 26.2447 69.7477 26.3302C69.7477 27.8243 69.454 29.1856 68.4109 30.5764C68.2635 30.773 68.5288 31.52 68.9613 31.52H69.9442C70.4553 32.6602 67.31 34.0756 66.4058 31.8739C66.188 31.3436 66.4058 30.3405 66.8775 29.6328C67.1659 29.2134 67.7425 27.9658 67.7425 26.3302C67.7425 24.2858 67.1949 23.8859 66.6417 23.8533C65.9733 23.814 64.5186 24.5217 63.8502 26.9986C63.5531 28.0995 63.3862 30.5214 63.4177 31.8739C63.4177 31.9918 63.5199 32.2434 63.9288 32.3063C64.3377 32.3692 64.4137 32.8043 64.4006 33.014H60.1544C60.1413 32.7781 60.2488 32.3063 60.7835 32.3063C61.3182 32.3063 61.4257 30.8647 61.4126 30.1439L62.1989 17.0123C62.1989 16.6977 62.0809 16.3439 61.1373 16.3439ZM35.8581 24.8368C35.5437 24.9937 34.0635 25.7803 33.8529 28.6522C33.6166 31.8743 35.3859 32.4641 36.1333 32.5052C36.8497 32.5446 37.9808 32.3068 38.6495 30.9325C39.3114 29.5725 39.2393 27.3154 38.7282 26.4505C38.2171 25.5855 37.3521 24.9154 36.9983 24.7975C36.6444 24.6795 36.1725 24.6799 35.8581 24.8368ZM35.7008 26.3325C35.6379 25.5777 35.9756 25.2299 36.2509 25.2299C36.5261 25.2299 36.9585 25.623 37.2338 26.6453C37.509 27.6675 37.588 29.0847 37.588 29.0847C37.6797 30.0545 37.7453 31.7582 36.5265 31.7582C35.6611 31.7582 35.3073 30.459 35.4649 29.8317C35.5698 29.0061 35.7729 27.1975 35.7008 26.3325ZM34.7965 26.8437C34.5082 27.5251 34.0417 29.2341 34.482 30.618C34.2933 29.5801 34.6131 27.6693 34.7965 26.8437Z" fill="#7AACB8"/>
</svg>
