<svg width="82" height="149" viewBox="0 0 82 149" fill="none" xmlns="http://www.w3.org/2000/svg">
<g clip-path="url(#clip0_120_1094)">
<path d="M49.0316 21.6783C49.0319 21.6786 49.0323 21.6789 49.0326 21.6791L57.3885 27.4951C57.4846 27.562 57.5966 27.6023 57.7132 27.6122C57.8299 27.622 57.9471 27.601 58.053 27.5512L67.0102 23.3318C67.8428 22.9521 67.7726 21.747 66.9009 21.4681L41.3441 13.2916C41.1672 13.2349 40.978 13.2286 40.7977 13.2734C40.6173 13.3183 40.4531 13.4124 40.3233 13.5454C40.1935 13.6784 40.1033 13.8448 40.0629 14.0262C40.0225 14.2075 40.0333 14.3966 40.0943 14.5721L48.8871 39.9233C49.1871 40.7881 50.3944 40.8282 50.7529 39.9875L54.7533 30.9299C54.8008 30.8227 54.8193 30.7049 54.8068 30.5884C54.7943 30.4718 54.7513 30.3606 54.6821 30.266L48.6642 22.0538C48.6275 22.0029 48.61 21.9406 48.6147 21.8781C48.6193 21.8155 48.6459 21.7566 48.6898 21.7117C48.7336 21.6668 48.7918 21.6388 48.8543 21.6326C48.9165 21.6264 48.9789 21.6423 49.0306 21.6775C49.0309 21.6777 49.0313 21.678 49.0316 21.6783Z" fill="#F2C94C"/>
</g>
<path d="M14.2222 147.5C34.2222 135.833 67.8222 106.3 42.2222 81.5C10.2222 50.5 -16.2778 118.5 18.2222 124.5C52.7222 130.5 107.222 87 64.2222 37" stroke="#F2C94C" stroke-width="3" stroke-linejoin="round" stroke-dasharray="8 8"/>
<defs>
<clipPath id="clip0_120_1094">
<rect width="32" height="32" fill="white" transform="translate(49.8999 45.2515) rotate(-135.694)"/>
</clipPath>
</defs>
</svg>
