<svg width="17" height="17" viewBox="0 0 17 17" fill="none" xmlns="http://www.w3.org/2000/svg">
<g id="fluent:play-16-filled">
<g id="Group">
<path id="Vector" d="M6.735 2.99449C6.50672 2.86617 6.24882 2.79985 5.98695 2.80213C5.72508 2.80441 5.46837 2.8752 5.24236 3.00748C5.01634 3.13975 4.82889 3.32889 4.69865 3.55608C4.56842 3.78328 4.49993 4.04061 4.5 4.30249V13.3025C4.5001 13.5643 4.56872 13.8215 4.69903 14.0485C4.82934 14.2756 5.0168 14.4646 5.24279 14.5968C5.46878 14.7289 5.72542 14.7996 5.9872 14.8018C6.24898 14.8041 6.50679 14.7378 6.735 14.6095L14.735 10.1095C14.9668 9.97895 15.1597 9.78911 15.294 9.55944C15.4282 9.32976 15.499 9.06852 15.499 8.80249C15.499 8.53646 15.4282 8.27521 15.294 8.04554C15.1597 7.81586 14.9668 7.62603 14.735 7.49549L6.735 2.99549V2.99449Z" fill="#F2C94C"/>
</g>
</g>
</svg>
