<svg width="19" height="21" viewBox="0 0 19 21" fill="none" xmlns="http://www.w3.org/2000/svg">
<path d="M2.54909 8.51998C2.58596 8.06055 2.79453 7.63187 3.13326 7.3193C3.47198 7.00673 3.91602 6.83322 4.37692 6.83331H15.4301C15.891 6.83322 16.335 7.00673 16.6738 7.3193C17.0125 7.63187 17.221 8.06055 17.2579 8.51998L17.994 17.6866C18.0143 17.9389 17.9821 18.1926 17.8994 18.4318C17.8168 18.671 17.6856 18.8905 17.5139 19.0765C17.3423 19.2625 17.1341 19.411 16.9023 19.5125C16.6705 19.6141 16.4202 19.6666 16.1671 19.6666H3.63992C3.38685 19.6666 3.13653 19.6141 2.90474 19.5125C2.67294 19.411 2.46467 19.2625 2.29306 19.0765C2.12145 18.8905 1.9902 18.671 1.90758 18.4318C1.82496 18.1926 1.79276 17.9389 1.81301 17.6866L2.54909 8.51998V8.51998Z" stroke="black" stroke-width="2" stroke-linecap="round" stroke-linejoin="round"/>
<path d="M13.5702 9.58331V4.99998C13.5702 4.02752 13.1838 3.09489 12.4962 2.40725C11.8086 1.71962 10.8759 1.33331 9.90348 1.33331C8.93102 1.33331 7.99839 1.71962 7.31076 2.40725C6.62312 3.09489 6.23682 4.02752 6.23682 4.99998V9.58331" stroke="black" stroke-width="2" stroke-linecap="round" stroke-linejoin="round"/>
</svg>
