<svg width="125" height="45" viewBox="0 0 125 45" fill="none" xmlns="http://www.w3.org/2000/svg">
<rect width="45" height="45" fill="#EB5757"/>
<path d="M16.228 8.576V10.22H12.796V11.996H15.364V13.592H12.796V17H10.744V8.576H16.228Z" fill="#F2F2F2"/>
<path d="M27.76 8.576V13.616C27.76 14.12 27.884 14.508 28.132 14.78C28.38 15.052 28.744 15.188 29.224 15.188C29.704 15.188 30.072 15.052 30.328 14.78C30.584 14.508 30.712 14.12 30.712 13.616V8.576H32.764V13.604C32.764 14.356 32.604 14.992 32.284 15.512C31.964 16.032 31.532 16.424 30.988 16.688C30.452 16.952 29.852 17.084 29.188 17.084C28.524 17.084 27.928 16.956 27.4 16.7C26.88 16.436 26.468 16.044 26.164 15.524C25.86 14.996 25.708 14.356 25.708 13.604V8.576H27.76Z" fill="#F2F2F2"/>
<path d="M13.9 26.576C14.788 26.576 15.564 26.752 16.228 27.104C16.892 27.456 17.404 27.952 17.764 28.592C18.132 29.224 18.316 29.956 18.316 30.788C18.316 31.612 18.132 32.344 17.764 32.984C17.404 33.624 16.888 34.12 16.216 34.472C15.552 34.824 14.78 35 13.9 35H10.744V26.576H13.9ZM13.768 33.224C14.544 33.224 15.148 33.012 15.58 32.588C16.012 32.164 16.228 31.564 16.228 30.788C16.228 30.012 16.012 29.408 15.58 28.976C15.148 28.544 14.544 28.328 13.768 28.328H12.796V33.224H13.768Z" fill="#F2F2F2"/>
<path d="M28.728 35.084C27.936 35.084 27.208 34.9 26.544 34.532C25.888 34.164 25.364 33.652 24.972 32.996C24.588 32.332 24.396 31.588 24.396 30.764C24.396 29.94 24.588 29.2 24.972 28.544C25.364 27.888 25.888 27.376 26.544 27.008C27.208 26.64 27.936 26.456 28.728 26.456C29.52 26.456 30.244 26.64 30.9 27.008C31.564 27.376 32.084 27.888 32.46 28.544C32.844 29.2 33.036 29.94 33.036 30.764C33.036 31.588 32.844 32.332 32.46 32.996C32.076 33.652 31.556 34.164 30.9 34.532C30.244 34.9 29.52 35.084 28.728 35.084ZM28.728 33.212C29.4 33.212 29.936 32.988 30.336 32.54C30.744 32.092 30.948 31.5 30.948 30.764C30.948 30.02 30.744 29.428 30.336 28.988C29.936 28.54 29.4 28.316 28.728 28.316C28.048 28.316 27.504 28.536 27.096 28.976C26.696 29.416 26.496 30.012 26.496 30.764C26.496 31.508 26.696 32.104 27.096 32.552C27.504 32.992 28.048 33.212 28.728 33.212Z" fill="#F2F2F2"/>
<path d="M76 15.248V17.96H69.016V22.256H74.368V24.92H69.016V32H65.656V15.248H76ZM90.9346 18.704V32H87.5506V30.32C87.1186 30.896 86.5506 31.352 85.8466 31.688C85.1586 32.008 84.4066 32.168 83.5906 32.168C82.5506 32.168 81.6306 31.952 80.8306 31.52C80.0306 31.072 79.3986 30.424 78.9346 29.576C78.4866 28.712 78.2626 27.688 78.2626 26.504V18.704H81.6226V26.024C81.6226 27.08 81.8866 27.896 82.4146 28.472C82.9426 29.032 83.6626 29.312 84.5746 29.312C85.5026 29.312 86.2306 29.032 86.7586 28.472C87.2866 27.896 87.5506 27.08 87.5506 26.024V18.704H90.9346ZM93.3857 25.304C93.3857 23.96 93.6497 22.768 94.1777 21.728C94.7218 20.688 95.4578 19.888 96.3858 19.328C97.3138 18.768 98.3458 18.488 99.4818 18.488C100.346 18.488 101.17 18.68 101.954 19.064C102.738 19.432 103.362 19.928 103.826 20.552V14.24H107.234V32H103.826V30.032C103.41 30.688 102.826 31.216 102.074 31.616C101.322 32.016 100.45 32.216 99.4578 32.216C98.3378 32.216 97.3138 31.928 96.3858 31.352C95.4578 30.776 94.7218 29.968 94.1777 28.928C93.6497 27.872 93.3857 26.664 93.3857 25.304ZM103.85 25.352C103.85 24.536 103.69 23.84 103.37 23.264C103.05 22.672 102.618 22.224 102.074 21.92C101.53 21.6 100.946 21.44 100.322 21.44C99.6978 21.44 99.1218 21.592 98.5938 21.896C98.0658 22.2 97.6338 22.648 97.2978 23.24C96.9778 23.816 96.8178 24.504 96.8178 25.304C96.8178 26.104 96.9778 26.808 97.2978 27.416C97.6338 28.008 98.0658 28.464 98.5938 28.784C99.1378 29.104 99.7138 29.264 100.322 29.264C100.946 29.264 101.53 29.112 102.074 28.808C102.618 28.488 103.05 28.04 103.37 27.464C103.69 26.872 103.85 26.168 103.85 25.352ZM116.419 32.216C115.139 32.216 113.987 31.936 112.963 31.376C111.939 30.8 111.131 29.992 110.539 28.952C109.963 27.912 109.675 26.712 109.675 25.352C109.675 23.992 109.971 22.792 110.563 21.752C111.171 20.712 111.995 19.912 113.035 19.352C114.075 18.776 115.235 18.488 116.515 18.488C117.795 18.488 118.955 18.776 119.995 19.352C121.035 19.912 121.851 20.712 122.443 21.752C123.051 22.792 123.355 23.992 123.355 25.352C123.355 26.712 123.043 27.912 122.419 28.952C121.811 29.992 120.979 30.8 119.923 31.376C118.883 31.936 117.715 32.216 116.419 32.216ZM116.419 29.288C117.027 29.288 117.595 29.144 118.123 28.856C118.667 28.552 119.099 28.104 119.419 27.512C119.739 26.92 119.899 26.2 119.899 25.352C119.899 24.088 119.563 23.12 118.891 22.448C118.235 21.76 117.427 21.416 116.467 21.416C115.507 21.416 114.699 21.76 114.043 22.448C113.403 23.12 113.083 24.088 113.083 25.352C113.083 26.616 113.395 27.592 114.019 28.28C114.659 28.952 115.459 29.288 116.419 29.288Z" fill="black"/>
</svg>
