<svg width="19" height="18" viewBox="0 0 19 18" fill="none" xmlns="http://www.w3.org/2000/svg">
<g id="bx:bxs-star">
<path id="Vector" d="M16.9603 6.88426C16.9131 6.74541 16.8264 6.6234 16.7107 6.5333C16.595 6.4432 16.4554 6.38896 16.3093 6.37726L12.0335 6.03751L10.1833 1.94176C10.1243 1.80984 10.0285 1.6978 9.9073 1.61915C9.78611 1.5405 9.64474 1.49861 9.50026 1.49853C9.35578 1.49845 9.21437 1.54019 9.09309 1.6187C8.97181 1.69722 8.87584 1.80916 8.81677 1.94101L6.96652 6.03751L2.69077 6.37726C2.54711 6.38864 2.40977 6.44117 2.29519 6.52856C2.1806 6.61595 2.09361 6.7345 2.04464 6.87003C1.99566 7.00556 1.98677 7.15233 2.01903 7.29278C2.05128 7.43324 2.12332 7.56142 2.22652 7.66201L5.38627 10.7423L4.26877 15.5813C4.23484 15.7277 4.24571 15.881 4.29998 16.0212C4.35426 16.1615 4.44942 16.2821 4.57312 16.3676C4.69682 16.453 4.84336 16.4994 4.99371 16.5005C5.14406 16.5016 5.29128 16.4576 5.41627 16.374L9.50002 13.6515L13.5838 16.374C13.7115 16.4588 13.8622 16.5025 14.0155 16.4991C14.1688 16.4958 14.3174 16.4455 14.4413 16.3552C14.5652 16.2649 14.6585 16.1387 14.7086 15.9938C14.7587 15.8489 14.7632 15.6921 14.7215 15.5445L13.3498 10.7445L16.7518 7.68301C16.9745 7.48201 17.0563 7.16851 16.9603 6.88426Z" fill="#F2C94C"/>
</g>
</svg>
