<svg width="13" height="12" viewBox="0 0 13 12" fill="none" xmlns="http://www.w3.org/2000/svg">
<g id="bx:bx-star">
<path id="Vector" d="M3.75801 7.1615L3.01301 10.3875C2.98994 10.4852 2.99687 10.5876 3.03289 10.6812C3.0689 10.7749 3.13233 10.8556 3.2149 10.9127C3.29746 10.9697 3.39532 11.0006 3.49569 11.0012C3.59606 11.0018 3.69428 10.9721 3.77751 10.916L6.50001 9.101L9.22251 10.916C9.30768 10.9725 9.40812 11.0017 9.51033 10.9994C9.61254 10.9972 9.7116 10.9637 9.79421 10.9035C9.87682 10.8432 9.939 10.7592 9.9724 10.6625C10.0058 10.5659 10.0088 10.4614 9.98101 10.363L9.06651 7.163L11.3345 5.122C11.4072 5.0566 11.459 4.97133 11.4837 4.87676C11.5084 4.78218 11.5049 4.68244 11.4735 4.58987C11.4421 4.4973 11.3842 4.41596 11.3071 4.35591C11.23 4.29586 11.137 4.25974 11.0395 4.252L8.18901 4.025L6.95551 1.2945C6.91618 1.20658 6.85224 1.13192 6.77142 1.07953C6.69059 1.02714 6.59633 0.999268 6.50001 0.999268C6.40369 0.999268 6.30943 1.02714 6.22861 1.07953C6.14778 1.13192 6.08385 1.20658 6.04451 1.2945L4.81101 4.025L1.96051 4.2515C1.86474 4.25909 1.77318 4.29411 1.69679 4.35237C1.6204 4.41063 1.56241 4.48966 1.52976 4.58002C1.49711 4.67037 1.49118 4.76822 1.51269 4.86185C1.53419 4.95549 1.58221 5.04094 1.65101 5.108L3.75801 7.1615ZM5.18451 4.9985C5.27376 4.99147 5.35947 4.96056 5.43266 4.90901C5.50586 4.85746 5.56383 4.78716 5.60051 4.7055L6.50001 2.715L7.39951 4.7055C7.43619 4.78716 7.49417 4.85746 7.56736 4.90901C7.64055 4.96056 7.72627 4.99147 7.81551 4.9985L9.80151 5.156L8.16601 6.628C8.02401 6.756 7.96751 6.953 8.01951 7.137L8.64601 9.3295L6.77801 8.084C6.69602 8.02897 6.59951 7.99958 6.50076 7.99958C6.40202 7.99958 6.3055 8.02897 6.22351 8.084L4.27151 9.3855L4.79651 7.1125C4.81576 7.0289 4.81318 6.94176 4.78901 6.85944C4.76484 6.77713 4.7199 6.70242 4.65851 6.6425L3.13951 5.1615L5.18451 4.9985Z" fill="#F2C94C"/>
</g>
</svg>
