<svg width="216" height="201" viewBox="0 0 216 201" fill="none" xmlns="http://www.w3.org/2000/svg">
<g id="Take Away-rafiki 1">
<g id="freepik--Shape--inject-8">
<path id="freepik--shape--inject-8" d="M108 171.879C61.9546 171.879 24.6274 169.842 24.6274 167.328C24.6274 164.815 61.9546 162.778 108 162.778C154.046 162.778 191.373 164.815 191.373 167.328C191.373 169.842 154.046 171.879 108 171.879Z" fill="#F5F5F5"/>
</g>
<g id="freepik--Route--inject-8">
<path id="Vector" d="M155.416 167.328H157.136" stroke="#FF3E3E" stroke-linecap="round" stroke-linejoin="round"/>
<path id="Vector_2" d="M160.387 167.328H204.311" stroke="#FF3E3E" stroke-linecap="round" stroke-linejoin="round" stroke-dasharray="7.57 7.57"/>
<path id="Vector_3" d="M205.937 167.328H207.657" stroke="#FF3E3E" stroke-linecap="round" stroke-linejoin="round"/>
</g>
<g id="freepik--Character--inject-8">
<path id="Vector_4" d="M53.0647 71.1021L102.68 71.8713L102.086 105.357L52.4708 104.588L53.0647 71.1021Z" fill="#FF3E3E"/>
<path id="Vector_5" opacity="0.3" d="M72.7321 71.4029L102.729 71.8679L102.135 105.354L72.1381 104.889L72.7321 71.4029Z" fill="white"/>
<path id="Vector_6" opacity="0.3" d="M68.2116 73.6592L76.8503 73.8208L76.8022 76.072L68.1635 75.9104L68.2116 73.6592Z" fill="white"/>
<path id="Vector_7" opacity="0.3" d="M67.9552 99.6985L76.5928 99.8324L76.5528 102.083L67.9153 101.949L67.9552 99.6985Z" fill="white"/>
<path id="Vector_8" d="M62.1964 92.5364C59.3965 92.5364 57.1267 90.1354 57.1267 87.1737C57.1267 84.212 59.3965 81.811 62.1964 81.811C64.9963 81.811 67.2661 84.212 67.2661 87.1737C67.2661 90.1354 64.9963 92.5364 62.1964 92.5364Z" stroke="white" stroke-miterlimit="10"/>
<path id="Vector_9" d="M61.9858 82.6271V83.5276" stroke="white" stroke-linecap="round" stroke-linejoin="round"/>
<path id="Vector_10" d="M61.7664 90.8761V91.7766" stroke="white" stroke-linecap="round" stroke-linejoin="round"/>
<path id="Vector_11" d="M66.4707 86.9968H65.5032" stroke="white" stroke-linecap="round" stroke-linejoin="round"/>
<path id="Vector_12" d="M58.7048 87.0008H57.7374" stroke="white" stroke-linecap="round" stroke-linejoin="round"/>
<path id="Vector_13" d="M61.99 86.9968L61.986 84.223" stroke="white" stroke-width="0.5" stroke-linecap="round" stroke-linejoin="round"/>
<path id="Vector_14" d="M61.8008 87.1777L59.7024 89.1395" stroke="white" stroke-width="0.5" stroke-linecap="round" stroke-linejoin="round"/>
<path id="Vector_15" d="M61.5214 87.0008C61.5214 87.0875 61.5489 87.1722 61.6004 87.2443C61.6519 87.3163 61.7251 87.3725 61.8107 87.4057C61.8963 87.4388 61.9906 87.4475 62.0815 87.4306C62.1724 87.4137 62.2559 87.3719 62.3215 87.3107C62.387 87.2494 62.4317 87.1713 62.4497 87.0863C62.4678 87.0013 62.4585 86.9132 62.4231 86.8331C62.3876 86.7531 62.3275 86.6846 62.2504 86.6365C62.1734 86.5883 62.0828 86.5626 61.9901 86.5626C61.9284 86.5621 61.8671 86.5731 61.81 86.5949C61.7529 86.6167 61.701 86.649 61.6574 86.6898C61.6137 86.7306 61.5792 86.7791 61.5559 86.8325C61.5325 86.8859 61.5208 86.9431 61.5214 87.0008Z" fill="white"/>
<path id="Vector_16" opacity="0.3" d="M62.1964 93.9554C58.4893 93.9554 55.4841 90.9191 55.4841 87.1737C55.4841 83.4282 58.4893 80.3919 62.1964 80.3919C65.9035 80.3919 68.9087 83.4282 68.9087 87.1737C68.9087 90.9191 65.9035 93.9554 62.1964 93.9554Z" fill="white"/>
<path id="Vector_17" d="M117.942 145.986C117.193 146.521 102.174 145.009 106.056 120.097C106.056 120.097 98.9313 121.79 98.1659 121.677C98.1659 121.677 87.7126 136.66 95.3236 144.081C102.935 151.502 114.278 151.956 114.278 151.956L117.942 145.986Z" fill="#FF3E3E"/>
<path id="Vector_18" opacity="0.3" d="M117.942 145.986C117.193 146.521 102.174 145.009 106.056 120.097C106.056 120.097 98.9313 121.79 98.1659 121.677C98.1659 121.677 87.7126 136.66 95.3236 144.081C102.935 151.502 114.278 151.956 114.278 151.956L117.942 145.986Z" fill="black"/>
<path id="Vector_19" d="M101.296 123.953C101.258 123.953 105.493 124.029 106.912 122.381C108.331 120.733 109.29 117.786 106.71 115.776C104.13 113.766 88.981 105.083 81.8473 104.399C74.7136 103.716 67.0768 108.017 67.0768 108.017L76.4164 114.474L96.5275 119.024L101.296 123.953Z" fill="#263238"/>
<path id="Vector_20" d="M114.992 142.063L114.601 145.665L109.974 145.299L110.67 141.596L114.992 142.063Z" fill="#FFC3BD"/>
<path id="Vector_21" d="M115.891 145.403L109.178 145.315L108.701 148.483C108.701 148.483 114.988 148.563 117.572 148.242C120.156 147.92 119.752 146.662 119.752 146.662C119.752 146.662 116.725 146.73 115.891 145.403Z" fill="#263238"/>
<path id="Vector_22" d="M57.3126 154.521C56.3103 145.312 62.2569 137.205 70.5946 136.411C78.9323 135.618 86.5038 142.44 87.5061 151.649C88.5083 160.857 82.5618 168.965 74.2241 169.758C65.8863 170.551 58.3148 163.729 57.3126 154.521Z" fill="#263238"/>
<path id="Vector_23" d="M82.9568 101.823C82.9568 101.823 82.2602 116.765 91.5568 117.191C100.853 117.617 110.842 116.664 110.842 116.664L107.914 143.514L116.63 144.016C116.63 144.016 122.887 121.239 123.871 115.515C124.856 109.79 124 105.742 117.537 103.201C111.074 100.661 82.9568 101.823 82.9568 101.823Z" fill="#FF3E3E"/>
<path id="Vector_24" d="M134.983 149.23L123.403 117.786L107.923 101.81C107.923 101.81 121.433 101.859 127.926 105.348C134.419 108.837 134.66 113.03 135.851 118.019C137.042 123.008 141.82 146.621 141.82 146.621L134.983 149.23Z" fill="#FF3E3E"/>
<path id="Vector_25" opacity="0.7" d="M82.9569 101.823C82.9569 101.823 97.3447 101.224 107.897 101.823C107.897 101.823 121.407 101.871 127.9 105.36C134.393 108.85 134.66 113.03 135.851 118.019C137.042 123.008 141.82 146.621 141.82 146.621L134.983 149.23L123.403 117.786C121.455 126.501 116.63 144 116.63 144L107.914 143.514L110.847 116.681C110.847 116.681 100.862 117.633 91.5612 117.207C82.2603 116.781 82.9569 101.823 82.9569 101.823Z" fill="black"/>
<path id="Vector_26" d="M106.71 77.586L112.055 78.193C112.055 78.193 112.984 87.3787 113.848 89.1636C113.848 89.1636 130.287 91.2741 137.021 91.0932L140.439 93.264L140.56 97.0388L137.21 97.1312L136.131 94.7393C136.131 94.7393 133.869 94.6469 133.344 93.457C133.344 93.457 115.878 97.4006 109.445 92.8982C109.436 92.9022 105.558 87.5757 106.71 77.586Z" fill="#FFC3BD"/>
<path id="Vector_27" d="M91.3935 52.9876C91.3935 52.9876 89.7208 54.9976 90.3572 56.7383C90.5329 57.2347 90.8423 57.6804 91.2558 58.0325C91.6693 58.3845 92.1729 58.6311 92.7179 58.7483C92.7179 58.7483 93.0318 61.5341 94.7905 61.6145C96.5492 61.6949 95.9601 55.476 95.9601 55.476L91.3935 52.9876Z" fill="#263238"/>
<path id="Vector_28" d="M104.934 101.891L106.108 83.9336L113.392 79.4071C113.392 79.4071 111.01 71.556 106.452 70.2254C101.894 68.8948 91.9525 65.8436 85.9239 67.3591C79.8953 68.8747 80.5876 75.5238 81.6239 80.4563L82.7849 80.7136C82.7849 80.7136 82.9655 100.15 82.9741 101.823L104.934 101.891Z" fill="#263238"/>
<path id="Vector_29" d="M91.8276 68.4687C94.2141 70.6274 99.0817 71.9138 100.428 70.8404C101.774 69.7671 100.075 68.7822 98.8108 67.5682C98.1271 66.9008 98.1486 65.6506 98.3077 64.6537C98.3915 64.1513 98.5151 63.6555 98.6775 63.1703C103.145 62.9411 104.999 60.9874 105.183 57.5423C105.368 54.0971 103.7 50.0972 103.7 50.0972L100.544 47.5807C100.544 47.5807 96.2437 48.1837 92.8037 50.3947C90.7569 51.6972 91.3632 54.262 92.2103 56.1554C92.5692 56.9613 93.0008 57.7373 93.5003 58.4749C93.9819 63.1904 91.8276 68.4687 91.8276 68.4687Z" fill="#FFC3BD"/>
<path id="Vector_30" d="M102.698 58.491C102.698 58.491 100.978 58.5674 100.225 57.5704" stroke="#263238" stroke-linecap="round" stroke-linejoin="round"/>
<path id="Vector_31" d="M99.9591 54.4227C99.9591 54.7283 100.157 54.9695 100.389 54.9654C100.621 54.9614 100.789 54.7082 100.78 54.4026C100.772 54.0971 100.583 53.8559 100.35 53.8599C100.118 53.864 99.9462 54.1172 99.9591 54.4227Z" fill="#263238"/>
<path id="Vector_32" d="M103.881 54.5192C103.881 54.8248 104.078 55.066 104.311 55.0619C104.543 55.0579 104.71 54.8047 104.702 54.4991C104.693 54.1936 104.504 53.9524 104.272 53.9564C104.04 53.9605 103.868 54.2177 103.881 54.5192Z" fill="#263238"/>
<path id="Vector_33" d="M102.517 57.0157L102.694 54.5514L103.954 56.8911C103.757 57.0473 103.514 57.1431 103.257 57.1654C103 57.1877 102.741 57.1354 102.517 57.0157Z" fill="#ED847E"/>
<path id="Vector_34" d="M100.166 52.4931C99.8357 52.4084 99.4844 52.4359 99.1742 52.5706C98.8639 52.7053 98.6149 52.9385 98.4713 53.2288" stroke="#263238" stroke-linecap="round" stroke-linejoin="round"/>
<path id="Vector_35" d="M105.093 52.9474C105.093 52.9474 104.302 52.1434 103.373 52.3484" stroke="#263238" stroke-linecap="round" stroke-linejoin="round"/>
<path id="Vector_36" d="M92.1804 56.1554C97.0996 56.3202 97.7102 51.1062 97.7102 51.1062C100.144 52.3122 103.683 50.1012 103.683 50.1012L100.527 47.5767C100.527 47.5767 96.2267 48.1877 92.7867 50.3907C90.727 51.6972 91.3333 54.27 92.1804 56.1554Z" fill="#263238"/>
<path id="Vector_37" d="M105.265 51.6289C105.265 51.6289 107.811 50.045 106.689 48.9033C105.566 47.7616 98.6906 49.9324 93.5521 52.5937C93.5521 52.5937 105.321 45.233 108.52 47.5606C111.165 49.4862 105.3 52.1595 105.476 52.1555L105.265 51.6289Z" fill="#FF3E3E"/>
<path id="Vector_38" d="M90.9076 51.0902C90.9148 51.9237 91.0838 52.7492 91.4064 53.5263L102.965 48.3003C102.486 47.7834 101.912 47.3504 101.271 47.0219C100.587 46.6561 99.8428 46.3981 99.069 46.2581C98.2485 46.1115 97.4087 46.0844 96.5793 46.1777C92.3524 46.632 90.8861 49.6711 90.9076 51.0902Z" fill="#FF3E3E"/>
<path id="Vector_39" d="M142.095 104.307C142.095 104.307 155.149 121.191 144.399 147.18" stroke="#263238" stroke-linecap="round" stroke-linejoin="round"/>
<path id="Vector_40" d="M124.865 113.079C124.865 113.079 124.865 113.111 124.865 113.175C124.865 113.239 124.865 113.276 124.865 113.348V113.388C125.02 115.014 125.307 116.627 125.725 118.212C126.318 120.556 127.105 122.787 127.754 124.58C130.506 132.198 130.188 140.407 130.188 140.407C131.1 139.345 132.768 138.59 134.854 138.059C142.447 136.109 155.339 137.154 155.339 137.154C157.867 128.861 156.964 115.881 154.449 108.612C151.933 101.344 144.959 102.984 144.959 102.984C144.959 102.984 137.597 103.185 136.673 103.093C134.98 102.901 133.268 102.934 131.586 103.189C125.901 104.162 124.534 108.363 124.865 113.079Z" fill="#FF3E3E"/>
<path id="Vector_41" d="M68.1862 144.72C81.0862 155.606 105.988 156.748 124.516 155.542L134.896 138.083L139.102 131.012L125.591 113.987L124.877 113.091C124.877 113.091 124.877 113.123 124.877 113.187C124.877 113.251 124.877 113.288 124.877 113.36V113.4C125.062 116.435 126.258 140.792 116.707 146.766L116.63 146.818C115.338 147.599 113.838 148.028 112.3 148.057C94.7774 148.531 95.2676 127.153 99.7224 122.574L69.3171 116.861C69.3171 116.861 63.3143 130.992 68.1862 144.72Z" fill="#FF3E3E"/>
<path id="Vector_42" d="M102.006 117.939C102.006 117.939 104.857 120.15 103.386 123.117C101.916 126.083 87.7385 120.323 82.1571 119.273C76.5757 118.224 70.1171 117.199 67.3393 116.664C64.5615 116.13 64.8023 108.681 67.0727 108.021C69.3431 107.362 91.5827 111.036 95.2721 113.054C97.7083 114.438 99.9675 116.076 102.006 117.939Z" fill="#263238"/>
<path id="Vector_43" d="M94.8679 57.9965C95.1392 57.7234 95.3035 57.3724 95.334 57.0008C95.3644 56.6292 95.2592 56.2589 95.0356 55.9503C94.3476 54.9855 92.9587 53.4539 91.6257 54.5996C89.7595 56.2076 92.9458 59.1302 94.2659 58.4226C94.487 58.3078 94.6897 58.1643 94.8679 57.9965Z" fill="#FFC3BD"/>
<path id="Vector_44" opacity="0.2" d="M105.265 51.6289C105.265 51.6289 107.811 50.045 106.688 48.9033C106.19 48.3968 104.698 48.5013 102.681 49.04C101.384 49.3664 100.114 49.7788 98.8797 50.2741C97.1081 50.9937 95.2247 51.9143 93.552 52.5937C93.552 52.5937 105.321 45.233 108.52 47.5606C111.165 49.4862 105.665 51.9826 105.472 52.1515L105.377 51.8258L105.265 51.6289Z" fill="black"/>
<path id="Vector_45" d="M104.057 50.9414C104.057 50.9414 106.637 51.3434 104.857 53.9403L104.057 50.9414Z" fill="#263238"/>
<path id="Vector_46" d="M101.584 49.3575C101.584 49.3575 105.476 48.0792 106.56 48.8028C107.643 49.5264 106.508 50.9052 105.27 51.6168L104.276 51.7374L103.691 50.0892L102.178 49.9163L101.584 49.3575Z" fill="#263238"/>
<path id="Vector_47" opacity="0.3" d="M96.2825 47.3918L97.2156 48.6822L101.271 47.034C100.586 46.6682 99.8426 46.4101 99.0689 46.2702L96.2825 47.3918Z" fill="white"/>
<path id="Vector_48" opacity="0.1" d="M97.1855 62.8165C97.4538 63.4837 97.8389 64.1045 98.325 64.6536C98.4088 64.1513 98.5324 63.6555 98.6948 63.1703C98.1734 63.1362 97.6625 63.0164 97.1855 62.8165Z" fill="black"/>
<path id="Vector_49" d="M135.735 98.1684C135.907 100.954 137.197 103.234 138.779 103.796C139.053 103.895 139.347 103.937 139.639 103.921C141.592 103.817 143.011 101.079 142.813 97.8106C142.615 94.5424 140.869 91.9776 138.917 92.0821C138.122 92.1223 137.421 92.6007 136.875 93.3685C136.07 94.47 135.619 96.2308 135.735 98.1684Z" fill="#F5F5F5"/>
<path id="Vector_50" d="M135.735 98.1684C135.907 100.954 137.197 103.234 138.78 103.796C140.586 103.7 141.897 101.171 141.712 98.1684C141.527 95.1655 139.919 92.7816 138.113 92.8781C137.648 92.9106 137.207 93.0874 136.862 93.3806C136.071 94.47 135.619 96.2308 135.735 98.1684Z" fill="white"/>
<path id="Vector_51" d="M66.0448 137.657C69.3687 135.474 82.23 133.331 82.23 133.331C90.0431 133.331 96.9016 139.904 97.8476 148.631C98.6216 155.731 95.2676 162.175 89.8625 165.113C89.8625 165.113 89.411 165.29 88.6542 165.568C85.7904 166.625 78.5234 169.186 74.2277 169.749" fill="#263238"/>
<path id="Vector_52" opacity="0.3" d="M57.3126 154.521C56.3103 145.312 62.2569 137.205 70.5946 136.411C78.9323 135.618 86.5038 142.44 87.5061 151.649C88.5083 160.857 82.5618 168.965 74.2241 169.758C65.8863 170.551 58.3148 163.729 57.3126 154.521Z" fill="black"/>
<path id="Vector_53" d="M124.16 153.985C123.158 144.776 129.104 136.669 137.442 135.875C145.78 135.082 153.351 141.904 154.353 151.113C155.356 160.321 149.409 168.429 141.071 169.222C132.734 170.015 125.162 163.193 124.16 153.985Z" fill="#263238"/>
<path id="Vector_54" d="M129.982 138.947L137.67 169.125C138.792 169.295 139.932 169.326 141.063 169.218H141.149C142.624 168.864 141.966 169.246 143.445 168.788C147.207 167.626 152.673 165.572 152.673 165.572C158.465 162.939 161.737 156.535 160.942 149.218C159.978 140.354 153.176 133.733 145.169 134.276C145.169 134.276 141.368 134.931 137.455 135.884C135.735 136.286 134.015 136.764 132.6 137.263C131.664 137.732 130.785 138.297 129.982 138.947Z" fill="#263238"/>
<path id="Vector_55" opacity="0.3" d="M124.159 153.966C125.019 161.906 130.768 168.068 137.678 169.109C138.8 169.279 139.941 169.31 141.071 169.202H141.157C142.732 169.043 144.262 168.616 145.672 167.944C151.481 165.19 155.158 158.501 154.354 151.104C153.352 141.902 145.797 135.088 137.463 135.868H137.442C135.75 136.028 134.108 136.496 132.609 137.247C131.672 137.718 130.794 138.284 129.99 138.935C125.875 142.28 123.48 147.892 124.159 153.966Z" fill="black"/>
<path id="Vector_56" d="M126.254 143.393C126.506 143.018 126.793 142.664 127.114 142.336C129.036 139.884 133.43 138.967 136.307 139.184C138.512 139.386 140.63 140.096 142.469 141.251C144.567 142.521 146.068 144.467 148.149 145.801C152.097 148.35 158.086 148.278 162.051 145.653C162.275 145.504 162.487 145.342 162.687 145.166C163.091 144.773 163.361 144.276 163.461 143.739C163.613 143.069 163.558 142.372 163.302 141.729C162.442 139.47 159.574 137.484 157.764 136.274C154.094 133.853 149.777 132.432 145.294 132.17C132.51 131.345 127.058 141.552 126.254 143.393Z" fill="#FF3E3E"/>
<path id="Vector_57" opacity="0.3" d="M127.14 143.715C129.887 140.009 133.413 138.967 136.29 139.184C138.495 139.386 140.613 140.096 142.452 141.251C144.55 142.521 146.051 144.467 148.132 145.801C152.08 148.35 158.07 148.278 162.034 145.653C162.258 145.504 162.47 145.342 162.671 145.166C163.075 144.773 163.344 144.276 163.445 143.739C163.596 143.069 163.541 142.372 163.285 141.729C161.957 143.164 158.087 146.621 152.845 144.945C146.309 142.835 144.714 136.563 137.726 136.62C132.175 136.68 128.756 140.7 127.14 143.715Z" fill="black"/>
<g id="Group" opacity="0.3">
<path id="Vector_58" opacity="0.3" d="M155.893 135.168C154.029 133.93 151.931 133.031 149.71 132.519C147.487 131.99 145.184 131.814 142.899 131.997C140.617 132.202 138.382 132.733 136.272 133.573L135.49 133.894L134.724 134.252C134.208 134.477 133.723 134.758 133.224 135.016C132.725 135.273 132.265 135.591 131.788 135.876C131.31 136.161 130.863 136.495 130.407 136.813C132.283 135.638 134.284 134.65 136.38 133.866C138.471 133.082 140.675 132.59 142.92 132.407C145.161 132.206 147.421 132.342 149.615 132.809C150.717 133.037 151.797 133.349 152.845 133.741C153.908 134.124 154.929 134.602 155.893 135.168Z" fill="black"/>
</g>
<g id="Group_2" opacity="0.3">
<path id="Vector_59" opacity="0.3" d="M141.97 132.294C142.506 130.618 142.828 128.888 142.929 127.141C143.071 125.4 143.101 123.651 143.062 121.915C143.023 120.178 142.894 118.425 142.722 116.689L142.409 114.092C142.271 113.227 142.151 112.363 141.979 111.503L142.37 116.729L142.525 119.334C142.55 120.202 142.606 121.07 142.611 121.939C142.684 123.675 142.649 125.412 142.581 127.165C142.55 128.033 142.477 128.897 142.383 129.762C142.307 130.614 142.169 131.46 141.97 132.294Z" fill="black"/>
</g>
<path id="Vector_60" opacity="0.3" d="M116.729 146.73C125.708 141.331 126.064 127.402 125.759 118.212C125.703 116.632 125.634 115.197 125.583 113.963C125.489 112.728 125.489 111.488 125.583 110.253C126.49 103.941 131.65 103.181 131.65 103.181H131.629C125.914 104.162 124.547 108.363 124.878 113.079C124.878 113.079 124.878 113.111 124.878 113.175C124.878 113.239 124.878 113.276 124.878 113.348V113.388C125.071 116.423 126.267 140.78 116.729 146.73Z" fill="black"/>
<path id="Vector_61" opacity="0.2" d="M117.46 99.1573C118.213 99.893 127.943 98.0076 129.642 98.8518C130.36 99.2055 130.674 100.46 131.396 101.835C133.426 104.85 136.281 105.324 136.457 105.348C133.052 102.936 132.102 97.1312 133.791 93.461C135.481 89.7907 141.531 90.7434 141.875 90.852C140.844 90.428 139.734 90.1945 138.607 90.1646C135.335 90.0038 131.345 90.864 130.227 92.8017C127.956 96.7533 118.221 95.8649 117.327 96.9021C116.432 97.9392 116.708 98.4216 117.46 99.1573Z" fill="black"/>
<path id="Vector_62" d="M125.08 95.6479C125.671 96.6685 125.907 97.8364 125.755 98.9885L117.512 99.8568C117.09 99.4008 116.779 98.8654 116.598 98.2869C116.418 97.7084 116.373 97.1003 116.467 96.5041C116.467 96.5041 124.632 95.7363 125.08 95.6479Z" fill="#263238"/>
<path id="Vector_63" d="M150.11 95.3624C150.11 95.3624 150.931 93.7303 149.947 92.6972C152.148 92.5122 153.511 92.2952 154.93 92.1022C155.141 92.7012 155.244 93.276 154.5 94.1886C153.756 95.1011 150.11 95.3624 150.11 95.3624Z" fill="#263238"/>
<path id="Vector_64" d="M154.689 105.577C156.117 107.752 157.338 111.233 157.446 116.793" stroke="#FF3E3E" stroke-linecap="round" stroke-linejoin="round"/>
<path id="Vector_65" d="M149.989 101.991C151.028 102.217 151.983 102.698 152.754 103.386" stroke="#FF3E3E" stroke-linecap="round" stroke-linejoin="round"/>
<path id="Vector_66" d="M85.8638 81.0352L91.2904 81.6542C91.2904 81.6542 92.2364 90.9766 93.1136 92.7896C93.1136 92.7896 109.802 94.9363 116.643 94.7474L120.113 96.9503L120.234 100.785L116.832 100.878L115.736 98.4659C115.736 98.4659 113.44 98.3734 112.911 97.1634C112.911 97.1634 95.1775 101.183 88.6459 96.6006C88.6502 96.5845 84.7071 91.1776 85.8638 81.0352Z" fill="#FFC3BD"/>
<path id="Vector_67" opacity="0.2" d="M130.05 152.76C130.205 157.817 133.748 161.821 137.967 161.709C138.534 161.693 139.095 161.602 139.635 161.439C143.015 160.434 145.449 156.708 145.315 152.346C145.182 148.125 142.692 144.636 139.42 143.667C138.766 143.47 138.081 143.379 137.395 143.397C133.176 143.514 129.891 147.719 130.05 152.76Z" fill="#FAFAFA"/>
<path id="Vector_68" d="M133.933 152.76C134.067 157.077 136.513 160.627 139.635 161.451C143.015 160.446 145.449 156.72 145.315 152.358C145.182 148.137 142.692 144.648 139.42 143.679C136.169 144.503 133.8 148.29 133.933 152.76Z" fill="#263238"/>
<path id="Vector_69" opacity="0.2" d="M63.7961 153.162C63.9552 158.219 67.4984 162.227 71.7124 162.111C72.2795 162.097 72.8416 162.006 73.3808 161.841C76.7649 160.836 79.1987 157.114 79.0611 152.748C78.9321 148.531 76.4424 145.038 73.1701 144.069C72.5162 143.872 71.8314 143.781 71.1448 143.799C66.9265 143.916 63.6413 148.113 63.7961 153.162Z" fill="#FAFAFA"/>
<path id="Vector_70" d="M67.679 153.162C67.8166 157.475 70.259 161.025 73.3808 161.849C76.7649 160.844 79.1987 157.122 79.0611 152.756C78.9321 148.539 76.4424 145.046 73.1701 144.077C69.915 144.901 67.5414 148.688 67.679 153.162Z" fill="#263238"/>
<path id="Vector_71" d="M57.1481 139.84C57.075 144.812 65.1719 148.105 78.7212 150.179C82.3735 150.78 86.1059 150.82 89.7722 150.3C95.7922 149.371 98.7334 146.991 98.7334 146.991C98.7334 146.991 97.2026 129.806 82.0537 127.627C71.7337 126.148 63.9679 130.039 60.0291 134.232C58.1758 136.202 57.1696 138.248 57.1481 139.84Z" fill="#FF3E3E"/>
<path id="Vector_72" opacity="0.3" d="M57.1481 139.84C57.075 144.812 65.1719 148.105 78.7212 150.179C82.3735 150.779 86.1059 150.82 89.7722 150.3C89.1229 145.633 86.2075 133.392 73.5354 132.121C67.7863 131.542 63.3487 132.628 60.0291 134.232C58.1758 136.202 57.1696 138.248 57.1481 139.84Z" fill="black"/>
<g id="Group_3" opacity="0.3">
<path id="Vector_73" opacity="0.3" d="M97.8562 147.068C97.5774 144.728 96.9806 142.432 96.0803 140.234C95.1949 138.013 93.9727 135.922 92.4511 134.027C91.6822 133.084 90.8183 132.214 89.8711 131.426C88.9325 130.625 87.8979 129.929 86.788 129.351C84.5794 128.187 82.132 127.473 79.607 127.257C80.8443 127.451 82.0614 127.744 83.2448 128.133C83.8425 128.302 84.4058 128.564 84.9648 128.785C85.5257 129.036 86.0725 129.314 86.6031 129.617C87.1449 129.906 87.6437 130.256 88.1554 130.582C88.6671 130.907 89.1401 131.293 89.5916 131.699C90.5098 132.479 91.3464 133.339 92.0899 134.268C93.6004 136.127 94.8316 138.171 95.7492 140.342C96.2256 141.424 96.6362 142.53 96.979 143.655C97.3439 144.775 97.6368 145.915 97.8562 147.068Z" fill="black"/>
</g>
<path id="Vector_74" d="M118.187 141.391L117.292 144.23L107.914 143.498L107.789 139.53L118.187 141.391Z" fill="#FF3E3E"/>
</g>
<g id="freepik--speed-line--inject-8">
<path id="Vector_75" d="M62.3511 122.035L41.7154 121.251" stroke="#FF3E3E" stroke-linecap="round" stroke-linejoin="round"/>
<path id="Vector_76" d="M34.8958 117.737L31.8298 117.621" stroke="#FF3E3E" stroke-linecap="round" stroke-linejoin="round"/>
<path id="Vector_77" d="M52.4612 118.405L37.2478 117.826" stroke="#FF3E3E" stroke-linecap="round" stroke-linejoin="round"/>
<path id="Vector_78" d="M41.8142 128.391L29.0647 127.908" stroke="#FF3E3E" stroke-linecap="round" stroke-linejoin="round"/>
<path id="Vector_79" d="M49.696 128.692L44.1404 128.479" stroke="#FF3E3E" stroke-linecap="round" stroke-linejoin="round"/>
</g>
</g>
</svg>
