<svg width="216" height="201" viewBox="0 0 216 201" fill="none" xmlns="http://www.w3.org/2000/svg">
<g id="Waiters-rafiki 1">
<g id="freepik--Shadow--inject-16">
<path id="freepik--path--inject-16" d="M108 171.879C154.259 171.879 191.76 169.842 191.76 167.328C191.76 164.815 154.259 162.778 108 162.778C61.7401 162.778 24.2393 164.815 24.2393 167.328C24.2393 169.842 61.7401 171.879 108 171.879Z" fill="#F5F5F5"/>
</g>
<g id="freepik--character-1--inject-16">
<path id="Vector" d="M83.545 48.0993C80.1797 50.6801 76.8922 54.8408 78.8189 59.3553C80.7456 63.8698 93.0749 64.324 95.6669 62.4668C99.0365 60.0548 96.06 49.3133 93.4334 49.249C93.2347 45.2652 86.3573 45.9406 83.545 48.0993Z" fill="#263238"/>
<path id="Vector_2" d="M78.8315 91.5756C78.8315 91.5756 80.1837 114.465 81.6741 126.859C81.8253 138.497 84.6981 164.788 84.6981 164.788H87.856C88.3874 151.743 92.2883 139.562 89.6963 128.057C95.7443 105.465 91.6015 91.5916 91.6015 91.5916L78.8315 91.5756Z" fill="#FFB573"/>
<path id="Vector_3" d="M82.2705 91.5917C82.2705 91.5917 88.7721 116.982 90.552 127.796C92.4268 139.156 95.2176 161.202 95.088 164.78H97.8139C97.8139 164.78 102.393 142.477 98.1552 128.198C101.65 96.0378 93.0273 91.6158 93.0273 91.6158L82.2705 91.5917Z" fill="#FFB573"/>
<path id="Vector_4" d="M66.6796 62.2256C66.4766 60.8548 63.7723 60.7382 63.7723 60.7382L62.4763 60.1312C62.2488 60.0015 61.9761 59.9593 61.7157 60.0133C61.4553 60.0673 61.2277 60.2133 61.0809 60.4206L60.6489 61.0879C60.5231 61.3506 60.5023 61.6464 60.5902 61.9221C60.6781 62.1978 60.869 62.4352 61.1284 62.5914L61.5216 62.8567C62.1903 63.3015 62.9816 63.5595 63.8025 63.6004L64.9991 63.6607C65.2619 63.6748 65.5253 63.6448 65.7767 63.5723C66.0745 63.4852 66.3284 63.301 66.4919 63.0536C66.6554 62.8062 66.7175 62.5122 66.6667 62.2256H66.6796Z" fill="#FFB573"/>
<path id="Vector_5" d="M80.9226 70.2455C80.7585 70.4022 80.6721 70.4786 80.5511 70.5791L80.2098 70.8605C79.9852 71.0374 79.7519 71.2022 79.523 71.367C79.0564 71.6886 78.5812 71.9861 78.093 72.2675C77.1134 72.8162 76.0842 73.2842 75.0172 73.6665C72.892 74.4358 70.6359 74.8443 68.3558 74.8725H68.157C68.0529 74.8704 67.949 74.8624 67.846 74.8484C67.6431 74.8207 67.4444 74.7708 67.2542 74.6996C66.9338 74.5768 66.6409 74.3995 66.3902 74.177C66.0655 73.8802 65.8007 73.5317 65.6082 73.1479C65.3388 72.6043 65.1373 72.0338 65.0078 71.4474C64.7787 70.4383 64.6343 69.4141 64.5758 68.3842C64.4588 66.4115 64.5021 64.4334 64.7054 62.4667C64.7294 62.247 64.8395 62.0431 65.0146 61.8939C65.1897 61.7447 65.4176 61.6606 65.655 61.6576C65.8924 61.6546 66.1227 61.733 66.3021 61.8777C66.4814 62.0225 66.5973 62.2235 66.6278 62.4426V62.4667C66.861 64.3401 67.1289 66.2415 67.4918 68.0626C67.6517 68.9445 67.8725 69.816 68.1527 70.6716C68.2643 71.0215 68.4179 71.3587 68.6106 71.6766C68.6884 71.7932 68.7662 71.8494 68.7316 71.8092C68.6744 71.7517 68.6033 71.7076 68.5242 71.6806C68.4542 71.651 68.38 71.6307 68.3039 71.6203H68.1873C69.116 71.5414 70.0372 71.3989 70.9434 71.1942C71.8415 70.9855 72.7222 70.7168 73.5786 70.3902C74.4316 70.0505 75.2536 69.6471 76.0367 69.1842C76.4298 68.9591 76.81 68.7219 77.1772 68.4686C77.3586 68.344 77.5314 68.2153 77.7042 68.0867L77.9548 67.8938L78.1449 67.737L78.2572 67.6445C78.6339 67.3305 79.1276 67.1659 79.6329 67.1857C80.1382 67.2055 80.6152 67.4081 80.9622 67.7505C81.3093 68.0928 81.4989 68.5478 81.4907 69.0183C81.4825 69.4889 81.2771 69.9379 80.9183 70.2696L80.9226 70.2455Z" fill="#FFB573"/>
<path id="Vector_6" d="M83.0478 65.7833C79.6307 65.2527 76.0451 67.4154 74.1875 69.1762C73.2284 71.8615 76.2999 75.1258 76.2999 75.1258C76.2999 75.1258 80.6761 72.6253 82.2529 70.9169C83.8297 69.2084 85.0177 66.0888 83.0478 65.7833Z" fill="#E0E0E0"/>
<path id="Vector_7" d="M93.632 91.2862C93.632 91.2862 98.4531 94.47 99.3603 105.055C99.7232 109.223 100.376 125.854 101.749 133.01C96.8029 136.298 81.9939 135.848 79.6741 133.926C80.3307 119.454 74.3864 100.259 78.6978 91.4309C85.8344 90.6149 93.632 91.2862 93.632 91.2862Z" fill="#263238"/>
<path id="Vector_8" opacity="0.2" d="M88.7416 121.641C88.8064 115.559 87.8431 107.189 84.9185 102.229C85.9164 108.419 88.7416 121.641 88.7416 121.641Z" fill="black"/>
<path id="Vector_9" d="M76.4338 70.6877C76.4338 74.1328 73.4832 75.9418 76.8226 78.595C77.0213 81.5698 77.2546 86.8963 78.2352 91.7485C79.2504 93.063 86.6722 92.9545 94.3834 91.3987C93.3768 87.238 93.7484 80.4603 96.3879 71.1902C96.5285 70.6757 96.5534 70.1398 96.4611 69.616C96.3687 69.0921 96.1611 68.5917 95.8513 68.146C95.5414 67.7003 95.136 67.3189 94.6604 67.0258C94.1848 66.7327 93.6493 66.5341 93.0874 66.4426C92.4524 66.3381 91.7914 66.2416 91.0916 66.1612C88.6799 65.8303 86.2458 65.6611 83.808 65.6547C83.0218 65.6547 82.2053 65.7029 81.4277 65.7511C80.0768 65.8288 78.8085 66.3825 77.8807 67.2996C76.953 68.2167 76.4356 69.4282 76.4338 70.6877Z" fill="#E0E0E0"/>
<path id="Vector_10" d="M92.1874 76.6693L83.1372 78.5765C82.7929 78.6491 82.5769 78.9677 82.6549 79.2882L85.5851 91.3287C85.6631 91.6492 86.0055 91.8501 86.3499 91.7775L95.4001 89.8704C95.7444 89.7978 95.9604 89.4792 95.8824 89.1587L92.9522 77.1182C92.8742 76.7977 92.5318 76.5967 92.1874 76.6693Z" fill="#FF4040"/>
<path id="Vector_11" d="M84.7024 70.0967C84.7024 70.0967 83.238 71.7289 82.0284 72.1067L81.8901 72.9107C83.4197 72.729 84.8315 72.0515 85.8775 70.9972L84.7024 70.0967Z" fill="#FF4040"/>
<path id="Vector_12" d="M80.724 69.1119C80.724 69.1119 80.6635 71.2344 81.2943 72.2716L80.8234 72.963C79.805 71.8845 79.2269 70.5069 79.1904 69.0717L80.724 69.1119Z" fill="#FF4040"/>
<path id="Vector_13" d="M90.7936 58.5151C90.2148 60.6538 89.5365 64.5974 91.0917 66.1531C91.0917 66.1531 85.2986 67.6245 81.5229 72.4485C79.7949 67.3792 83.8255 65.6466 83.8255 65.6466C86.465 65.2446 86.4996 63.4517 86.1367 61.7311L90.7936 58.5151Z" fill="#FFB573"/>
<path id="Vector_14" opacity="0.2" d="M88.8973 59.8297L86.1411 61.7392C86.2302 62.1362 86.2822 62.5397 86.2966 62.9452C87.2989 62.8808 88.7245 61.9603 88.8886 60.9995C88.9644 60.6129 88.9673 60.2171 88.8973 59.8297Z" fill="black"/>
<path id="Vector_15" d="M93.4809 54.7042C92.3706 58.1694 91.9818 59.6608 89.6447 61.0236C86.1282 63.0698 81.8687 60.9633 81.8428 57.2408C81.8428 53.8881 83.6442 48.7988 87.6489 48.244C91.6535 47.6893 94.6084 51.2349 93.4809 54.7042Z" fill="#FFB573"/>
<path id="Vector_16" d="M90.5778 49.643C89.528 52.9836 90.4266 56.477 92.5693 56.879C95.5458 55.8459 95.3989 52.7706 94.6386 51.3636C93.8783 49.9566 91.1826 47.7174 90.5778 49.643Z" fill="#263238"/>
<path id="Vector_17" d="M92.2062 55.6448C90.5516 56.1554 90.2319 57.1885 90.2319 57.1885C90.2319 57.1885 91.3681 56.4408 92.4568 56.5815C92.2988 56.2907 92.2131 55.9706 92.2062 55.6448Z" fill="#263238"/>
<path id="Vector_18" d="M88.0719 54.3785C87.9985 54.6639 87.7782 54.8569 87.5751 54.8127C87.3721 54.7685 87.2641 54.4911 87.3375 54.2057C87.411 53.9202 87.6313 53.7233 87.8343 53.7715C88.0374 53.8197 88.1281 54.0931 88.0719 54.3785Z" fill="#263238"/>
<path id="Vector_19" d="M84.2404 53.5303C84.167 53.8157 83.9466 54.0087 83.7436 53.9604C83.5405 53.9122 83.4325 53.6429 83.506 53.3534C83.5794 53.064 83.7997 52.875 84.0028 52.9233C84.2058 52.9715 84.3182 53.2409 84.2404 53.5303Z" fill="#263238"/>
<path id="Vector_20" d="M84.0979 52.9595L83.4023 52.5856C83.4023 52.5856 83.6486 53.2128 84.0979 52.9595Z" fill="#263238"/>
<path id="Vector_21" d="M84.9662 53.9966C84.527 54.5853 84.0005 55.1131 83.4023 55.5644C83.5337 55.7061 83.6961 55.8199 83.8787 55.8982C84.0612 55.9766 84.2597 56.0177 84.4607 56.0187L84.9662 53.9966Z" fill="#ED893E"/>
<path id="Vector_22" d="M93.5022 58.1814C93.2734 58.4314 92.9895 58.6326 92.6697 58.7713C92.3499 58.91 92.0017 58.9831 91.6489 58.9854C90.746 58.9613 90.5905 57.9965 91.0873 57.2046C91.5193 56.489 92.5388 55.6408 93.3251 56.0468C94.1113 56.4529 94.1157 57.5302 93.5022 58.1814Z" fill="#FFB573"/>
<path id="Vector_23" d="M88.7936 53.1484C88.7471 53.127 88.7114 53.0895 88.6942 53.0439C88.6249 52.8337 88.5048 52.641 88.343 52.4808C88.1813 52.3205 87.9822 52.1968 87.7611 52.1193C87.7133 52.107 87.6726 52.0779 87.6476 52.0381C87.6226 51.9983 87.6152 51.951 87.6272 51.9062C87.6326 51.8842 87.6429 51.8634 87.6574 51.8452C87.6718 51.827 87.6902 51.8117 87.7113 51.8004C87.7323 51.7891 87.7557 51.7819 87.7799 51.7794C87.8041 51.7768 87.8285 51.779 87.8518 51.7856C88.1345 51.8772 88.3901 52.0293 88.5979 52.2297C88.8058 52.4302 88.9601 52.6732 89.0485 52.9394C89.0572 52.9607 89.0611 52.9835 89.0598 53.0062C89.0586 53.029 89.0523 53.0513 89.0414 53.0717C89.0304 53.0921 89.015 53.1102 88.9961 53.1248C88.9773 53.1394 88.9554 53.1501 88.9318 53.1564C88.8863 53.17 88.8369 53.1672 88.7936 53.1484Z" fill="#263238"/>
<path id="Vector_24" d="M82.8491 51.8178C82.8001 51.8193 82.7522 51.8035 82.7152 51.7736C82.6811 51.7406 82.6621 51.6967 82.6621 51.651C82.6621 51.6052 82.6811 51.5613 82.7152 51.5283C82.9078 51.3211 83.1513 51.1602 83.4251 51.0595C83.6989 50.9587 83.9948 50.9209 84.2877 50.9495C84.337 50.9574 84.3811 50.9827 84.4109 51.0201C84.4407 51.0576 84.4538 51.1043 84.4475 51.1505C84.4401 51.1958 84.4136 51.2365 84.3739 51.2636C84.3342 51.2908 84.2845 51.3021 84.2358 51.2952C84.004 51.2737 83.7701 51.3049 83.5541 51.3861C83.3382 51.4674 83.1466 51.5962 82.996 51.7615C82.9773 51.7802 82.9545 51.7949 82.9292 51.8046C82.9038 51.8143 82.8765 51.8188 82.8491 51.8178Z" fill="#263238"/>
<path id="Vector_25" d="M87.9211 53.8117L87.2256 53.4338C87.2256 53.4338 87.4718 54.0649 87.9211 53.8117Z" fill="#263238"/>
<path id="Vector_26" d="M87.6962 82.3537L84.2402 81.7306L84.629 85.425C84.629 85.425 87.221 85.3205 88.6985 84.219L88.8367 83.7366C88.6769 82.9366 88.4825 82.6432 87.6962 82.3537Z" fill="#FFB573"/>
<path id="Vector_27" d="M82.1626 83.3065L82.5643 84.8702C82.6231 85.0948 82.7701 85.2908 82.9764 85.4195C83.1827 85.5482 83.4333 85.6004 83.6789 85.5657L84.6466 85.425L84.2578 81.7306L82.7847 82.2291C82.5572 82.3067 82.3682 82.4592 82.2536 82.6578C82.1389 82.8563 82.1065 83.0872 82.1626 83.3065Z" fill="#FFB573"/>
<path id="Vector_28" d="M95.4245 69.144C96.4746 71.0154 97.391 72.9492 98.1677 74.9328C98.5565 75.9257 98.9237 76.9428 99.2174 77.984C99.5378 79.0628 99.7546 80.1659 99.8654 81.2804C99.8914 81.5738 99.9043 81.8753 99.9086 82.1809V82.2894V82.4623C99.8982 82.5807 99.875 82.6979 99.8395 82.812C99.7761 83.0336 99.677 83.245 99.5458 83.4391C99.3456 83.7281 99.0839 83.9757 98.7768 84.1667C98.4012 84.3993 97.9866 84.5718 97.5499 84.6773C97.2191 84.7623 96.883 84.8281 96.5434 84.8743C95.3658 85.0121 94.1776 85.0538 92.9923 84.9989C90.7451 84.9024 88.5085 84.6525 86.3006 84.2512C86.0615 84.2143 85.846 84.0949 85.6973 83.9168C85.5485 83.7386 85.4774 83.5149 85.4982 83.2901C85.5189 83.0654 85.6299 82.8561 85.8091 82.7042C85.9882 82.5522 86.2224 82.4687 86.4648 82.4703C88.6248 82.4341 90.8107 82.3819 92.9146 82.2331C93.9218 82.1682 94.9224 82.0338 95.9083 81.8311C96.1096 81.7878 96.3074 81.7314 96.5002 81.6623C96.5957 81.6377 96.6842 81.5937 96.7594 81.5336C96.6764 81.5793 96.6079 81.6444 96.5606 81.7226C96.5032 81.8073 96.4595 81.8994 96.431 81.9959C96.4158 82.0501 96.4042 82.1052 96.3965 82.1608C96.3942 82.1875 96.3942 82.2144 96.3965 82.2412C96.3965 82.0361 96.3576 81.8392 96.323 81.614C95.9452 79.7509 95.3559 77.9303 94.5648 76.183C93.7829 74.37 92.8886 72.5248 91.9728 70.7842V70.752C91.7871 70.3313 91.7786 69.861 91.9488 69.4347C92.119 69.0084 92.4555 68.6574 92.8913 68.4516C93.3271 68.2458 93.8302 68.2003 94.3004 68.3241C94.7707 68.448 95.1735 68.7321 95.4288 69.1199L95.4245 69.144Z" fill="#FFB573"/>
<path id="Vector_29" d="M93.3122 66.5672C95.7876 66.9933 96.8892 69.0636 98.6863 73.1961C98.1377 75.978 93.7442 77.4413 93.7442 77.4413C93.7442 77.4413 91.2214 73.2806 90.7202 71.0736C90.2191 68.8666 90.8153 66.137 93.3122 66.5672Z" fill="#E0E0E0"/>
<path id="Vector_30" d="M88.0806 164.82C88.0604 164.766 88.0211 164.721 87.9693 164.691C87.9174 164.661 87.8561 164.648 87.7955 164.655L84.8666 164.615C84.5669 164.596 84.2675 164.656 84.0026 164.788C82.6617 165.567 81.1556 166.068 79.5875 166.255C78.9654 166.344 79.2462 167.32 80.715 167.337C83.1386 167.361 83.5792 167.192 85.6485 167.212C87.4154 167.232 86.573 167.304 87.977 167.337C88.3139 167.337 88.5904 167.14 88.5472 166.935L88.0806 164.82Z" fill="#263238"/>
<path id="Vector_31" d="M98.1851 164.82C98.1643 164.767 98.1248 164.722 98.0731 164.692C98.0215 164.662 97.9605 164.649 97.9 164.655L95.5111 164.615C95.2113 164.595 94.9116 164.655 94.6471 164.788C93.7831 165.347 93.904 165.994 91.9341 166.255C91.312 166.344 91.6188 167.32 93.0876 167.336C95.5111 167.361 95.3642 167.212 96.3491 167.212C97.3341 167.212 96.7293 167.304 98.1376 167.336C98.4746 167.336 98.7467 167.14 98.6949 166.934L98.1851 164.82Z" fill="#263238"/>
<path id="Vector_32" d="M83.1084 70.7158C84.3353 70.764 86.586 71.7007 87.3074 72.7017C88.327 71.7168 92.31 69.4294 92.3791 66.33C91.8916 65.8938 91.2773 65.6002 90.6122 65.4858C90.6122 65.4858 85.2986 67.8777 83.1084 70.7158Z" fill="#FAFAFA"/>
<path id="Vector_33" d="M81.1214 70.555C81.1214 70.555 80.7888 68.0506 84.0461 65.6185C83.7178 65.3692 82.4304 65.6506 82.4304 65.6506C82.4304 65.6506 78.6245 67.1742 78.7368 71.1178C79.4227 70.6486 80.2781 70.4467 81.1214 70.555Z" fill="#FAFAFA"/>
<path id="Vector_34" d="M80.6376 71.6163C80.1667 71.8213 79.9809 73.2484 80.6376 73.5821C81.2942 73.9157 81.2294 72.553 81.6096 72.0866C81.9897 71.6203 81.4627 71.2585 80.6376 71.6163Z" fill="#FF4040"/>
<path id="Vector_35" d="M81.2163 72.1711C80.8793 72.5731 81.3157 73.9399 82.0414 73.9358C82.7672 73.9318 82.1408 72.7298 82.2834 72.1349C82.4259 71.5399 81.7909 71.4635 81.2163 72.1711Z" fill="#FF4040"/>
<path id="Vector_36" d="M81.3155 73.1881C80.5076 72.0263 80.4515 78.1488 82.4084 80.5608C82.2788 78.185 83.6483 74.8162 81.3155 73.1881Z" fill="#FF4040"/>
<path id="Vector_37" d="M81.242 73.1359C80.8834 71.954 79.082 77.1317 80.0799 79.6603C80.6458 77.6141 82.7583 75.0896 81.242 73.1359Z" fill="#FF4040"/>
<path id="Vector_38" d="M87.2646 57.1242C87.4529 57.0479 87.6336 56.9565 87.8046 56.8508C87.8143 56.8419 87.822 56.8312 87.8272 56.8195C87.8324 56.8078 87.8351 56.7952 87.8351 56.7825C87.8351 56.7698 87.8324 56.7572 87.8272 56.7455C87.822 56.7338 87.8143 56.7231 87.8046 56.7141C87.7867 56.6927 87.7607 56.6784 87.7319 56.6739C87.7031 56.6695 87.6736 56.6752 87.6491 56.69C87.2639 56.9304 86.8256 57.0874 86.3666 57.1493C85.9075 57.2112 85.4394 57.1765 84.9966 57.0478C84.9836 57.0425 84.9696 57.0396 84.9553 57.0394C84.9411 57.0391 84.9269 57.0415 84.9137 57.0463C84.9004 57.0512 84.8883 57.0584 84.8781 57.0677C84.8679 57.0769 84.8597 57.0879 84.8541 57.1001C84.8444 57.1251 84.8457 57.1527 84.8579 57.1769C84.87 57.201 84.892 57.2196 84.9189 57.2287C85.6879 57.4642 86.5233 57.427 87.2646 57.1242Z" fill="#263238"/>
<path id="Vector_39" d="M74.7276 59.9583H52.6567V60.6256H74.7276V59.9583Z" fill="#FF4040"/>
<path id="Vector_40" d="M74.2004 60.6256H53.1836L54.1081 61.0919H73.2759L74.2004 60.6256Z" fill="#FF4040"/>
<path id="Vector_41" opacity="0.2" d="M74.2004 60.6256H53.1836L54.1081 61.0919H73.2759L74.2004 60.6256Z" fill="black"/>
<path id="Vector_42" d="M59.7284 42.0814C59.5993 42.0803 59.4758 42.0321 59.3845 41.9472C59.2932 41.8622 59.2414 41.7473 59.2402 41.6271V40.1035C59.2414 39.9834 59.2932 39.8684 59.3845 39.7835C59.4758 39.6985 59.5993 39.6503 59.7284 39.6493C59.8575 39.6503 59.981 39.6985 60.0723 39.7835C60.1636 39.8684 60.2154 39.9834 60.2165 40.1035V41.6271C60.2154 41.7473 60.1636 41.8622 60.0723 41.9472C59.981 42.0321 59.8575 42.0803 59.7284 42.0814Z" fill="#263238"/>
<path id="Vector_43" d="M60.5151 40.0111V39.8101C60.5151 39.6147 60.3449 39.4563 60.135 39.4563H59.3228C59.1128 39.4563 58.9426 39.6147 58.9426 39.8101V40.0111C58.9426 40.2064 59.1128 40.3648 59.3228 40.3648H60.135C60.3449 40.3648 60.5151 40.2064 60.5151 40.0111Z" fill="#263238"/>
<path id="Vector_44" d="M60.5107 45.3898V41.0442C60.5107 40.9969 60.4908 40.9515 60.4553 40.9177C60.4197 40.8839 60.3714 40.8643 60.3206 40.8633H59.1369C59.0861 40.8643 59.0377 40.8839 59.0022 40.9177C58.9667 40.9515 58.9468 40.9969 58.9468 41.0442V45.3898C58.947 45.7164 58.8727 46.0393 58.729 46.3373C58.5853 46.6352 58.3754 46.9014 58.1131 47.1184C57.8517 47.337 57.6425 47.6041 57.4988 47.9025C57.3552 48.2009 57.2804 48.524 57.2793 48.851V59.9985H62.1739V48.851C62.1735 48.5239 62.0991 48.2006 61.9554 47.902C61.8118 47.6035 61.6021 47.3365 61.3401 47.1184C61.079 46.9007 60.8702 46.6343 60.7272 46.3364C60.5843 46.0386 60.5105 45.716 60.5107 45.3898Z" fill="#FF4040"/>
<path id="Vector_45" d="M62.1737 50.1696H58.9424V57.3774H62.1737V50.1696Z" fill="#E0E0E0"/>
<path id="Vector_46" d="M66.7614 59.9583H66.1782C66.3724 59.9704 66.5672 59.9704 66.7614 59.9583Z" fill="#FF4040"/>
<path id="Vector_47" d="M70.2823 59.9583H69.6948C69.8904 59.9704 70.0867 59.9704 70.2823 59.9583Z" fill="#FF4040"/>
<path id="Vector_48" opacity="0.2" d="M65.9795 51.456V53.2851C65.9795 54.7404 66.8694 55.9504 67.9969 56.0991V59.3151C67.9969 59.8096 67.4785 59.9503 67.0768 59.9824H69.3793C68.9776 59.9503 68.4592 59.8096 68.4592 59.3151V56.0991C69.5867 55.9544 70.4766 54.7444 70.4766 53.2851V51.456H65.9795Z" fill="#FF4040"/>
<path id="Vector_49" d="M92.7462 49.7354C91.0182 50.4188 85.2294 50.6279 82.9614 50.1696C85.3072 47.0862 90.5776 46.1817 92.7462 49.7354Z" fill="#263238"/>
<path id="Vector_50" d="M98.194 60.7502C98.1773 60.7499 98.1609 60.7462 98.1459 60.7392C98.131 60.7323 98.1179 60.7223 98.1076 60.71C98.0514 60.6377 96.777 58.893 96.7511 54.2218C96.7511 52.2721 96.1074 50.7043 95.0231 49.9123C94.7414 49.6957 94.409 49.5436 94.0526 49.4682C93.6962 49.3928 93.3258 49.3962 92.9711 49.4782C92.9572 49.4811 92.9428 49.4814 92.9288 49.4791C92.9148 49.4769 92.9013 49.472 92.8893 49.4649C92.8773 49.4578 92.8668 49.4486 92.8586 49.4378C92.8504 49.4269 92.8446 49.4147 92.8415 49.4018C92.8384 49.3888 92.838 49.3755 92.8405 49.3624C92.8429 49.3493 92.8481 49.3369 92.8557 49.3257C92.8633 49.3145 92.8732 49.3048 92.8849 49.2971C92.8965 49.2895 92.9097 49.2841 92.9236 49.2812C93.3091 49.1958 93.7104 49.1938 94.0969 49.2753C94.4833 49.3569 94.8445 49.5198 95.1527 49.7515C96.2975 50.5837 96.9585 52.2118 96.9714 54.2177C96.9973 58.8166 98.2674 60.5774 98.2674 60.5934C98.2757 60.6042 98.2816 60.6165 98.2848 60.6294C98.288 60.6423 98.2884 60.6557 98.286 60.6688C98.2836 60.6819 98.2784 60.6944 98.2708 60.7056C98.2631 60.7168 98.2532 60.7265 98.2415 60.7341C98.2271 60.7426 98.2109 60.748 98.194 60.7502Z" fill="#263238"/>
</g>
<g id="freepik--character-2--inject-16">
<path id="Vector_51" d="M129.281 37.0845C130.486 38.6201 130.481 41.012 130.071 42.3105C127.911 41.398 128.248 38.7769 128.248 38.7769L129.281 37.0845Z" fill="#263238"/>
<path id="Vector_52" d="M135.739 56.0911L136.983 57.3654L138.279 58.6598C139.143 59.5161 140.007 60.3523 140.897 61.1563C141.329 61.5583 141.761 61.9603 142.223 62.314C142.686 62.6678 143.087 63.0457 143.541 63.3713C143.995 63.6969 144.405 63.9863 144.807 64.2356C145.109 64.4244 145.427 64.591 145.757 64.7341L145.096 64.6376C144.9 64.6156 144.702 64.6567 144.535 64.7542C144.535 64.7542 144.638 64.7542 144.785 64.6738C145.186 64.4451 145.559 64.1754 145.895 63.8698C146.78 63.0876 147.607 62.2509 148.371 61.3653C149.196 60.4447 149.999 59.4638 150.799 58.4709C151.598 57.478 152.397 56.4609 153.183 55.4599L153.222 55.4157C153.498 55.0776 153.892 54.8401 154.336 54.7445C154.78 54.6489 155.246 54.7013 155.653 54.8926C156.06 55.0838 156.382 55.4018 156.563 55.7912C156.744 56.1806 156.773 56.6168 156.644 57.0237C156.206 58.2942 155.7 59.5433 155.127 60.7663C154.561 61.9723 153.935 63.1783 153.226 64.3843C152.491 65.6386 151.642 66.8316 150.686 67.9501C150.116 68.6113 149.474 69.2149 148.768 69.751C148.301 70.1028 147.789 70.3998 147.243 70.6354C146.442 70.9828 145.565 71.1508 144.681 71.1259C144.519 71.1202 144.356 71.1 144.198 71.0656L144.016 71.0294C143.07 70.8184 142.154 70.5011 141.29 70.0847C140.566 69.7416 139.867 69.3562 139.195 68.9309C137.963 68.1595 136.789 67.312 135.679 66.3943C134.59 65.514 133.579 64.5934 132.598 63.6567C132.115 63.1824 131.631 62.708 131.169 62.2176C130.706 61.7271 130.261 61.2487 129.773 60.69C129.228 59.9536 128.996 59.0557 129.12 58.1693C129.245 57.2828 129.717 56.4706 130.447 55.8893C131.177 55.308 132.112 54.9988 133.073 55.0212C134.033 55.0436 134.951 55.3961 135.648 56.0107L135.739 56.0911Z" fill="#E0E0E0"/>
<path id="Vector_53" d="M155.118 57.6307L158.967 57.8036L157.719 52.9796C157.719 52.9796 154.138 53.2248 153.563 54.9373C153.503 55.1283 153.515 55.3326 153.598 55.5162L154.306 57.0961C154.373 57.2477 154.485 57.3784 154.629 57.4731C154.773 57.5678 154.942 57.6224 155.118 57.6307Z" fill="#FF8B7B"/>
<path id="Vector_54" d="M162.402 54.9414L161.659 53.3334C161.514 53.0217 161.256 52.7676 160.929 52.6161C160.603 52.4645 160.229 52.4253 159.875 52.5053L157.715 52.9997L158.963 57.8237L161.555 56.8509C161.748 56.7801 161.923 56.6738 162.071 56.5385C162.219 56.4033 162.335 56.2417 162.414 56.0635C162.493 55.8852 162.533 55.694 162.531 55.5012C162.529 55.3085 162.485 55.118 162.402 54.9414Z" fill="#FF8B7B"/>
<path id="Vector_55" d="M126.636 124.435C122.55 107.708 120.022 87.5395 120.022 87.5395L136.78 87.2903C136.78 87.2903 136.546 114.47 136.581 125.854C136.624 137.693 137.505 163.747 137.505 163.747H132.421C132.421 163.747 125.859 139.068 126.636 124.435Z" fill="#263238"/>
<path id="Vector_56" d="M125.332 101.356L122.68 105.014C123.47 109.581 124.408 114.61 125.501 119.539C125.959 111.965 125.881 103.165 125.332 101.356Z" fill="black"/>
<path id="Vector_57" d="M144.288 166.066C144.288 166.066 137.286 164.531 136.759 163.497H132.871L132.897 167.328H135.298L135.666 166.975L136.275 167.328C138.219 167.328 143.385 167.256 144.608 166.85C144.632 166.705 144.616 166.556 144.56 166.419C144.504 166.281 144.41 166.16 144.288 166.066Z" fill="#263238"/>
<path id="Vector_58" d="M111.05 123.965C112.99 107.141 112.929 95.9011 115.292 87.6119L130.55 87.3988C130.55 87.3988 124.196 114.084 121.245 125.187C118.295 136.29 113.245 163.739 113.245 163.739H108.536C108.536 163.739 107.054 136.973 111.05 123.965Z" fill="#263238"/>
<path id="Vector_59" d="M114.083 90.8882C113.746 92.8982 112.545 104.789 111.301 109.119C121.474 113.32 137.026 111.668 137.506 108.942C137.363 103.893 137.074 90.8882 137.074 90.8882H114.083Z" fill="#E0E0E0"/>
<path id="Vector_60" opacity="0.1" d="M114.649 93.0952C115.359 94.1664 116.218 95.1463 117.202 96.0097C117.202 96.0097 115.007 95.6439 114.649 93.0952Z" fill="black"/>
<path id="Vector_61" opacity="0.1" d="M135.1 95.8972C135.683 95.0877 136.156 94.2141 136.508 93.2962C136.508 93.2962 136.607 95.3504 135.1 95.8972Z" fill="black"/>
<path id="Vector_62" opacity="0.1" d="M114.744 94.6107C114.978 95.4159 115.325 96.189 115.776 96.9102C115.365 96.6776 115.044 96.3298 114.858 95.9167C114.673 95.5036 114.633 95.0464 114.744 94.6107Z" fill="black"/>
<path id="Vector_63" d="M117.634 166.066C117.634 166.066 113.266 164.531 112.765 163.497H108.877L108.799 167.328H111.983L112.359 166.975L112.959 167.328C114.903 167.328 116.696 167.256 117.932 166.85C117.961 166.707 117.949 166.558 117.897 166.421C117.844 166.283 117.754 166.161 117.634 166.066Z" fill="#263238"/>
<path id="Vector_64" d="M114.731 54.0489C120.122 53.4258 127.82 53.4861 132.983 54.3142C134.273 54.5319 135.456 55.1213 136.367 55.9993C137.277 56.8772 137.867 57.9992 138.054 59.2066C139.139 66.4627 138.206 79.1417 137.514 91.9052C125.721 95.6599 113.279 91.853 113.279 91.853C112.847 89.2802 113.815 80.8422 114.463 76.3398C113.491 71.6887 111.439 66.3622 110.065 60.1834C109.898 59.4922 109.889 58.7762 110.039 58.0815C110.188 57.3869 110.493 56.7292 110.932 56.151C111.372 55.5728 111.938 55.0869 112.592 54.7248C113.246 54.3627 113.975 54.1324 114.731 54.0489Z" fill="#263238"/>
<path id="Vector_65" opacity="0.1" d="M114.731 54.0489C120.122 53.4258 127.82 53.4861 132.983 54.3142C134.273 54.5319 135.456 55.1213 136.367 55.9993C137.277 56.8772 137.867 57.9992 138.054 59.2066C139.139 66.4627 138.206 79.1417 137.514 91.9052C125.721 95.6599 113.279 91.853 113.279 91.853C112.847 89.2802 113.815 80.8422 114.463 76.3398C113.491 71.6887 111.439 66.3622 110.065 60.1834C109.898 59.4922 109.889 58.7762 110.039 58.0815C110.188 57.3869 110.493 56.7292 110.932 56.151C111.372 55.5728 111.938 55.0869 112.592 54.7248C113.246 54.3627 113.975 54.1324 114.731 54.0489Z" fill="white"/>
<path id="Vector_66" d="M120.066 44.4693L126.2 49.1526C125.406 51.1183 125.155 53.1726 128.62 53.9484C129.484 55.0137 128.188 56.883 126.65 57.6106C123.012 56.8388 120.917 55.9303 119.504 54.1253C119.949 52.7103 120.658 47.3757 120.066 44.4693Z" fill="#FF8B7B"/>
<path id="Vector_67" opacity="0.2" d="M122.623 46.423L126.2 49.1485C126.007 49.603 125.862 50.0743 125.768 50.5555C124.382 50.648 122.455 49.3495 122.369 48.1677C122.337 47.5764 122.424 46.9849 122.623 46.423Z" fill="black"/>
<path id="Vector_68" d="M119.185 41.2774C119.746 44.8592 119.876 46.9818 121.997 48.6621C125.19 51.1907 129.821 49.1325 130.426 45.4461C130.966 42.1377 129.959 36.8353 126.041 35.7258C125.171 35.4797 124.249 35.4432 123.361 35.6198C122.472 35.7963 121.646 36.1801 120.961 36.7352C120.276 37.2902 119.753 37.9982 119.442 38.7927C119.132 39.5873 119.043 40.4423 119.185 41.2774Z" fill="#FF8B7B"/>
<path id="Vector_69" d="M119.15 42.9296C119.546 43.3284 120.057 43.6124 120.621 43.7472C121.186 43.882 121.781 43.8619 122.334 43.6894C121.41 42.817 122.308 39.6252 121.384 38.3267C123.172 38.6563 130.136 39.597 130.801 37.3498C131.523 34.9378 128.641 33.0123 127.026 32.8314C127.501 33.8364 127.458 34.564 125.686 34.2384C123.915 33.9127 116.614 32.3449 117.422 35.5288C115.072 35.5288 114.912 38.7126 116.632 40.2362C117.573 41.0465 118.418 41.9496 119.15 42.9296Z" fill="#263238"/>
<path id="Vector_70" d="M117.854 35.376C116.446 35.0504 116.886 33.8444 117.202 33.7198C115.884 34.0172 115.404 35.2232 116.994 35.778C118.584 36.3328 117.854 35.376 117.854 35.376Z" fill="#263238"/>
<path id="Vector_71" d="M118.1 43.4763C118.231 43.8688 118.445 44.2332 118.728 44.5485C119.011 44.8638 119.359 45.1238 119.751 45.3134C120.809 45.8159 121.578 44.9878 121.479 43.9507C121.397 43.014 120.753 41.6271 119.595 41.5387C119.34 41.5268 119.087 41.5746 118.857 41.6777C118.627 41.7807 118.429 41.9357 118.28 42.1284C118.132 42.3212 118.037 42.5456 118.006 42.781C117.974 43.0165 118.007 43.2555 118.1 43.4763Z" fill="#FF8B7B"/>
<path id="Vector_72" d="M124.589 41.406C124.615 41.6995 124.805 41.9246 125.021 41.9085C125.237 41.8924 125.375 41.6351 125.349 41.3457C125.323 41.0563 125.133 40.8271 124.917 40.8432C124.701 40.8593 124.563 41.1125 124.589 41.406Z" fill="#263238"/>
<path id="Vector_73" d="M128.356 41.3216C128.382 41.6151 128.572 41.8402 128.788 41.8201C129.004 41.8 129.138 41.5507 129.112 41.2573C129.086 40.9638 128.896 40.7427 128.68 40.7588C128.464 40.7749 128.33 41.0281 128.356 41.3216Z" fill="#263238"/>
<path id="Vector_74" d="M127.591 41.7156C128.046 42.5796 128.627 43.3806 129.319 44.0954C128.805 44.6261 127.838 44.4974 127.838 44.4974L127.591 41.7156Z" fill="#FF5652"/>
<path id="Vector_75" d="M124.006 40.4734C123.976 40.4811 123.945 40.4811 123.915 40.4734C123.892 40.4654 123.871 40.4532 123.853 40.4374C123.835 40.4216 123.821 40.4026 123.812 40.3816C123.802 40.3605 123.797 40.3378 123.797 40.3149C123.797 40.292 123.802 40.2693 123.812 40.2483C123.915 39.9902 124.083 39.7586 124.302 39.5727C124.52 39.3868 124.783 39.2519 125.069 39.179C125.117 39.1699 125.168 39.1792 125.209 39.2048C125.251 39.2305 125.279 39.2703 125.289 39.3156C125.299 39.3609 125.289 39.408 125.261 39.4465C125.234 39.4849 125.191 39.5116 125.142 39.5207C124.916 39.5802 124.709 39.6889 124.537 39.8378C124.365 39.9866 124.233 40.1714 124.153 40.3769C124.139 40.4032 124.119 40.4259 124.093 40.4428C124.067 40.4597 124.037 40.4702 124.006 40.4734Z" fill="#263238"/>
<path id="Vector_76" d="M130.542 40.0071C130.511 40.0072 130.48 39.9999 130.453 39.9858C130.426 39.9717 130.403 39.9514 130.387 39.9267C130.272 39.7388 130.11 39.5791 129.916 39.4609C129.721 39.3428 129.499 39.2695 129.268 39.2473C129.244 39.2468 129.219 39.2418 129.197 39.2326C129.175 39.2234 129.155 39.2103 129.138 39.1938C129.121 39.1774 129.108 39.1581 129.099 39.1369C129.09 39.1157 129.086 39.0931 129.086 39.0704C129.089 39.0242 129.11 38.9807 129.147 38.9491C129.183 38.9175 129.231 38.9005 129.281 38.9016C129.574 38.9264 129.856 39.016 130.104 39.1628C130.352 39.3097 130.558 39.5095 130.706 39.7458C130.731 39.785 130.738 39.8315 130.727 39.8756C130.716 39.9197 130.687 39.9582 130.646 39.9829C130.616 40.0021 130.579 40.0107 130.542 40.0071Z" fill="#263238"/>
<path id="Vector_77" d="M119.504 54.1253C119.504 54.1253 125.799 63.0256 128.192 69.3048C130.551 61.9362 130.823 56.0388 128.624 53.9484C127.915 54.7806 125.064 55.9062 119.504 54.1253Z" fill="#E0E0E0"/>
<path id="Vector_78" d="M117.357 60.702L116.748 62.31L116.143 63.9823C115.742 65.0959 115.374 66.2134 115.033 67.3109C114.86 67.8616 114.709 68.4083 114.571 68.947C114.433 69.4857 114.299 70.0204 114.204 70.5309C114.109 71.0414 114.035 71.5359 113.988 71.9781C113.963 72.3167 113.963 72.6565 113.988 72.9952L113.763 72.4082C113.582 72.0907 113.396 72.0062 113.387 72.0062C113.379 72.0062 113.448 72.0866 113.582 72.1751C113.984 72.3958 114.411 72.5738 114.856 72.7057C116.005 73.0649 117.178 73.3523 118.368 73.566C119.634 73.7992 120.939 73.968 122.256 74.169C123.574 74.37 124.93 74.5107 126.235 74.6836H126.295C126.751 74.7442 127.169 74.953 127.475 75.273C127.781 75.5929 127.955 76.0033 127.967 76.4314C127.979 76.8595 127.828 77.2778 127.54 77.612C127.252 77.9462 126.846 78.1748 126.395 78.2574C124.987 78.506 123.567 78.6885 122.14 78.8041C120.714 78.9247 119.275 78.985 117.82 78.9769C116.285 78.9743 114.753 78.8493 113.24 78.6031C112.353 78.4489 111.484 78.2105 110.648 77.8915C110.092 77.6779 109.566 77.3997 109.085 77.0634C108.375 76.5754 107.798 75.9393 107.4 75.2062C107.326 75.0697 107.267 74.927 107.223 74.7801L107.175 74.6152C106.923 73.7401 106.785 72.8398 106.765 71.9339C106.744 71.1784 106.774 70.4225 106.855 69.6706C106.994 68.2971 107.232 66.9339 107.568 65.5903C107.875 64.2798 108.264 63.0135 108.683 61.7633C108.899 61.1402 109.115 60.5211 109.357 59.906C109.599 59.291 109.841 58.7 110.139 58.0367C110.529 57.1702 111.265 56.4788 112.193 56.1087C113.121 55.7385 114.167 55.7187 115.11 56.0534C116.054 56.3881 116.82 57.0511 117.247 57.9021C117.675 58.7531 117.73 59.7255 117.401 60.6136L117.357 60.702Z" fill="#E0E0E0"/>
<path id="Vector_79" d="M126.848 75.2022L130.667 75.6444L128.559 80.191C128.559 80.191 125.073 79.387 124.822 77.6021C124.797 77.4048 124.848 77.2056 124.965 77.0393L125.95 75.5961C126.044 75.4584 126.179 75.3483 126.338 75.2786C126.497 75.209 126.674 75.1824 126.848 75.2022Z" fill="#FF8B7B"/>
<path id="Vector_80" d="M133.531 79.0091L132.503 80.4884C132.304 80.7728 132.003 80.9821 131.653 81.0793C131.303 81.1764 130.928 81.1551 130.594 81.0191L128.559 80.191L130.667 75.6443L133.048 77.0152C133.222 77.1152 133.372 77.2465 133.491 77.4015C133.61 77.5564 133.695 77.7319 133.74 77.9175C133.785 78.1032 133.789 78.2954 133.754 78.4828C133.718 78.6703 133.642 78.8492 133.531 79.0091Z" fill="#FF8B7B"/>
<path id="Vector_81" d="M119.811 52.7424C119.009 52.861 118.273 53.2295 117.725 53.7876C119.435 55.9119 121.874 57.4293 124.637 58.089C124.438 57.474 125.034 55.677 125.691 55.0338C123.276 54.7002 119.811 52.7424 119.811 52.7424Z" fill="#FAFAFA"/>
<path id="Vector_82" d="M126.447 52.9635C127.266 53.1021 128.044 53.3993 128.732 53.8358C128.732 53.8358 131.151 56.3483 128.3 57.7674C128.494 57.1523 127.004 55.5122 125.669 55.0338C128.08 54.7001 126.447 52.9635 126.447 52.9635Z" fill="#FAFAFA"/>
<path id="Vector_83" d="M125.937 56.465C124.027 55.5122 121.664 54.4791 122.321 56.1474C122.978 57.8157 122.109 58.3945 122.965 58.9614C123.82 59.5282 125.557 57.9724 126.131 57.7554C126.706 57.5383 125.937 56.465 125.937 56.465Z" fill="#FF4040"/>
<path id="Vector_84" d="M127.289 56.4529C128.745 55.5403 130.568 54.5514 130.244 56.1795C129.92 57.8076 130.724 58.3745 130.089 58.9252C129.454 59.4759 127.821 57.9363 127.302 57.7192C126.784 57.5021 127.289 56.4529 127.289 56.4529Z" fill="#FF4040"/>
<path id="Vector_85" d="M125.678 56.3363C126.11 56.0951 127.164 55.7896 127.687 56.4449C128.209 57.1001 128.041 58.1976 127.319 58.3302C127.062 58.3787 126.795 58.3613 126.547 58.2799C126.299 58.1985 126.079 58.0562 125.911 57.8679C126.071 57.6277 126.136 57.3427 126.093 57.0627C126.05 56.7828 125.903 56.5257 125.678 56.3363Z" fill="#FF4040"/>
<path id="Vector_86" d="M113.508 163.867L108.268 164.004L107.992 161.242L114.079 161.58L113.508 163.867Z" fill="black"/>
<path id="Vector_87" d="M137.692 163.859L132.033 164.004L131.406 161.612L137.726 161.041L137.692 163.859Z" fill="black"/>
<path id="Vector_88" d="M125.358 74.2655C122.712 73.5375 119.983 73.099 117.228 72.959C116.64 72.9912 116.416 85.3446 116.463 90.3978C116.463 91.0812 124.913 90.9445 127.073 90.635C127.194 89.2239 127.22 78.9247 127.782 75.7047C127.824 75.4528 127.775 75.1948 127.642 74.9718C127.509 74.7489 127.3 74.5738 127.047 74.4746C126.512 74.2738 125.931 74.2019 125.358 74.2655Z" fill="white"/>
<path id="Vector_89" d="M169.591 54.4911H145.606V55.1263H169.591V54.4911Z" fill="#FF4040"/>
<path id="Vector_90" d="M169.089 55.1263H146.107L146.988 55.5725H168.212L169.089 55.1263Z" fill="#FF4040"/>
<path id="Vector_91" opacity="0.2" d="M169.089 55.1263H146.107L146.988 55.5725H168.212L169.089 55.1263Z" fill="black"/>
<path id="Vector_92" d="M158.587 45.5185C158.588 45.7007 158.531 45.8791 158.423 46.031C158.315 46.183 158.16 46.3016 157.98 46.3719C157.799 46.4422 157.6 46.461 157.408 46.4259C157.216 46.3908 157.039 46.3035 156.9 46.1749C156.761 46.0463 156.667 45.8823 156.628 45.7036C156.59 45.5249 156.609 45.3396 156.684 45.1712C156.759 45.0027 156.885 44.8587 157.048 44.7574C157.211 44.656 157.402 44.6019 157.598 44.6019C157.728 44.6014 157.856 44.6247 157.976 44.6705C158.096 44.7164 158.206 44.7838 158.297 44.869C158.389 44.9541 158.462 45.0553 158.512 45.1668C158.562 45.2783 158.587 45.3978 158.587 45.5185Z" fill="#FF4040"/>
<path id="Vector_93" d="M167.967 51.5445C167.3 49.625 166.034 47.9341 164.329 46.6883L164.597 46.3707C166.371 47.6669 167.689 49.4264 168.381 51.4239L167.967 51.5445Z" fill="#FF4040"/>
<path id="Vector_94" d="M162.83 45.7637C162.346 45.5149 161.842 45.3012 161.322 45.1245L161.469 44.7466C162.01 44.9358 162.534 45.1629 163.037 45.426L162.83 45.7637Z" fill="#FF4040"/>
<path id="Vector_95" d="M157.598 45.5185C154.996 45.5185 152.5 46.4803 150.661 48.1924C148.821 49.9045 147.787 52.2266 147.787 54.6479H167.409C167.409 52.2266 166.375 49.9045 164.535 48.1924C162.695 46.4803 160.2 45.5185 157.598 45.5185Z" fill="#FF4040"/>
<path id="Vector_96" opacity="0.3" d="M149.14 53.8318H151.675C151.763 53.8304 151.848 53.8008 151.915 53.748C151.981 53.6953 152.027 53.6226 152.043 53.5424C152.552 51.0419 154.155 48.8631 156.704 46.9697C156.762 46.9264 156.803 46.8669 156.821 46.7999C156.839 46.733 156.833 46.6624 156.805 46.5988C156.776 46.5352 156.725 46.4821 156.661 46.4474C156.597 46.4128 156.523 46.3986 156.449 46.4069C154.521 46.6436 152.729 47.4577 151.343 48.7261C149.956 49.9946 149.051 51.6484 148.764 53.4379C148.757 53.4874 148.762 53.5376 148.777 53.5853C148.793 53.633 148.82 53.677 148.856 53.7143C148.891 53.7516 148.935 53.7814 148.984 53.8017C149.033 53.8219 149.086 53.8322 149.14 53.8318Z" fill="white"/>
<path id="Vector_97" d="M126.386 45.5426C126.588 45.5508 126.791 45.5414 126.991 45.5145C127.018 45.5096 127.041 45.495 127.057 45.4739C127.072 45.4528 127.078 45.427 127.073 45.4019C127.066 45.3757 127.049 45.3528 127.025 45.3373C127.001 45.3218 126.972 45.3147 126.943 45.3175C126.492 45.3799 126.031 45.3465 125.596 45.2198C125.161 45.0931 124.762 44.8764 124.429 44.5858C124.419 44.5762 124.408 44.5686 124.395 44.5633C124.382 44.5581 124.368 44.5554 124.353 44.5554C124.339 44.5554 124.325 44.5581 124.312 44.5633C124.299 44.5686 124.287 44.5762 124.278 44.5858C124.259 44.6051 124.249 44.6302 124.249 44.6562C124.249 44.6822 124.259 44.7073 124.278 44.7265C124.849 45.2298 125.599 45.5202 126.386 45.5426Z" fill="#263238"/>
</g>
</g>
</svg>
